<svg width="2893" height="1697" viewBox="0 0 2893 1697" fill="none" xmlns="http://www.w3.org/2000/svg">
<path d="M280.767 470.842L254.999 403.147H113.058L86.8538 470.842H5.61981L137.516 160.755H230.542L362.001 470.842H280.767ZM133.585 349.864H234.472L204.774 272.124C195.166 249.85 189.051 235.438 184.247 214.474H183.374C179.006 235.438 172.892 249.85 163.284 272.124L133.585 349.864Z" fill="#010B13"/>
<path d="M572.432 160.755C644.931 160.755 690.789 199.188 690.789 260.332C690.789 324.096 644.058 363.84 569.812 363.84H481.59V470.842H403.413V160.755H572.432ZM553.215 309.684C588.155 309.684 608.245 292.651 608.245 262.516C608.245 232.817 588.591 215.784 553.215 215.784H481.59V309.684H553.215Z" fill="#010B13"/>
<path d="M902.121 160.755C974.62 160.755 1020.48 199.188 1020.48 260.332C1020.48 324.096 973.746 363.84 899.5 363.84H811.279V470.842H733.102V160.755H902.121ZM882.904 309.684C917.844 309.684 937.934 292.651 937.934 262.516C937.934 232.817 918.28 215.784 882.904 215.784H811.279V309.684H882.904Z" fill="#010B13"/>
<path d="M1062.79 470.842V160.755H1140.97V407.951H1303.44V470.842H1062.79Z" fill="#010B13"/>
<path d="M1428.43 470.842H1350.26V160.755H1428.43V470.842Z" fill="#010B13"/>
<path d="M1578.14 413.628H1757.2V470.842H1499.96V160.755H1754.14V217.531H1578.14V285.226H1746.72V340.256H1578.14V413.628Z" fill="#010B13"/>
<path d="M1816.85 470.842V160.755H1971.02C2057.74 160.755 2118.45 202.618 2134.5 273.101C2137.29 285.33 2100.22 298.421 2100.22 312.304C2080.24 332.436 2076.67 358.244 2068.62 377.677C2057.71 404.036 2070.12 428.391 2074.31 441.563C2046.53 460.378 2010.9 470.842 1969.71 470.842H1816.85ZM1895.03 414.502H1964.03C2023.43 414.502 2057.06 372.138 2057.06 312.741C2057.06 254.654 2022.56 217.095 1964.03 217.095H1895.03V414.502Z" fill="#010B13"/>
<path d="M161.537 900.013C83.7966 900.013 26.1467 871.624 0.378906 824.456L58.0288 784.276C78.1189 819.215 113.932 841.053 165.031 841.053C206.958 841.053 231.415 829.697 231.415 804.803C231.415 783.403 217.876 774.668 182.937 769.427L118.736 759.819C54.9716 749.773 22.216 720.512 22.216 666.793C22.216 607.832 74.1883 572.456 161.537 572.456C227.921 572.456 279.457 592.983 308.719 635.347L257.62 678.148C238.403 647.139 203.027 629.233 157.169 629.233C119.173 629.233 96.8988 641.025 96.8988 661.988C96.8988 682.079 109.564 690.813 146.687 696.928L209.141 706.099C277.273 717.018 308.719 743.222 308.719 797.815C308.719 861.143 255.436 900.013 161.537 900.013Z" fill="#010B13"/>
<path d="M509.753 900.013C402.751 900.013 333.309 836.248 333.309 736.234C333.309 636.221 402.751 572.456 509.753 572.456C616.755 572.456 686.196 636.221 686.196 736.234C686.196 836.248 616.755 900.013 509.753 900.013ZM509.753 839.742C567.839 839.742 604.526 799.999 604.526 736.234C604.526 672.47 567.839 632.727 509.753 632.727C451.666 632.727 414.98 672.47 414.98 736.234C414.98 799.562 451.666 839.742 509.753 839.742Z" fill="#010B13"/>
<path d="M892.693 900.013C783.508 900.013 718.87 836.248 718.87 737.108C718.87 638.404 788.312 572.456 894.44 572.456C982.662 572.456 1042.06 615.694 1055.6 686.446L975.238 700.422C967.376 658.058 938.551 634.037 892.693 634.037C835.043 634.037 800.104 673.344 800.104 736.234C800.104 797.815 835.917 837.995 894.44 837.995C938.551 837.995 967.376 815.285 976.548 774.231L1056.47 791.264C1036.82 859.396 979.168 900.013 892.693 900.013Z" fill="#010B13"/>
<path d="M1181.06 891.278H1102.88V581.191H1181.06V891.278Z" fill="#010B13"/>
<path d="M1497.16 891.278L1471.39 823.583H1329.45L1303.25 891.278H1222.01L1353.91 581.191H1446.94L1578.39 891.278H1497.16ZM1349.98 770.3H1450.87L1421.17 692.56C1411.56 670.286 1405.45 655.874 1400.64 634.91H1399.77C1395.4 655.874 1389.29 670.286 1379.68 692.56L1349.98 770.3Z" fill="#010B13"/>
<path d="M1619.81 891.278V581.191H1697.98V828.387H1860.45V891.278H1619.81Z" fill="#010B13"/>
<path d="M36.1917 1311.71V1001.63H147.998L216.566 1191.61C220.933 1205.15 223.991 1216.94 225.301 1227.42H226.174C227.485 1216.94 230.979 1204.71 235.346 1191.17L302.604 1001.63H416.157V1311.71H344.531V1104.26C344.531 1091.16 345.405 1076.75 346.715 1063.64H345.405C343.658 1071.94 338.854 1088.1 334.486 1099.46L258.493 1311.71H189.488L113.058 1099.46C108.691 1088.1 104.76 1073.69 103.013 1064.08H101.266C103.013 1075.44 103.45 1089.85 103.45 1104.26V1311.71H36.1917Z" fill="#010B13"/>
<path d="M566.038 1254.5H745.102V1311.71H487.861V1001.63H742.045V1058.4H566.038V1126.1H734.62V1181.13H566.038V1254.5Z" fill="#010B13"/>
<path d="M804.755 1311.71V1001.63H958.924C1060.69 1001.63 1126.63 1059.28 1126.63 1153.18C1126.63 1248.39 1058.94 1311.71 957.614 1311.71H804.755ZM882.932 1255.37H951.937C1011.33 1255.37 1044.96 1213.01 1044.96 1153.61C1044.96 1095.53 1010.46 1057.97 951.937 1057.97H882.932V1255.37Z" fill="#010B13"/>
<path d="M1251.43 1311.71H1173.26V1001.63H1251.43V1311.71Z" fill="#010B13"/>
<path d="M1567.53 1311.71L1541.77 1244.02H1399.83L1373.62 1311.71H1292.39L1424.28 1001.63H1517.31L1648.77 1311.71H1567.53ZM1420.35 1190.74H1521.24L1491.54 1113C1481.93 1090.72 1475.82 1076.31 1471.01 1055.35H1470.14C1465.77 1076.31 1459.66 1090.72 1450.05 1113L1420.35 1190.74Z" fill="#010B13"/>
<path d="M1827.51 1311.71V1001.63H1892.85L1873.94 1035.95L1867.03 1119.23L1905.69 1166.82V1248.82H2068.16V1311.71H1827.51Z" fill="#010B13"/>
<path d="M2368.09 1311.71L2342.32 1244.02H2200.38L2174.17 1311.71H2092.94L2224.83 1001.63H2317.86L2449.32 1311.71H2368.09ZM2220.9 1190.74H2321.79L2292.09 1113C2282.48 1090.72 2276.37 1076.31 2271.57 1055.35H2270.69C2266.32 1076.31 2260.21 1090.72 2250.6 1113L2220.9 1190.74Z" fill="#010B13"/>
<path d="M2719.15 1149.68C2762.38 1156.23 2785.09 1183.31 2785.09 1223.93C2785.09 1272.41 2751.03 1311.71 2675.04 1311.71H2490.73V1001.63H2671.54C2744.04 1001.63 2777.23 1035.69 2777.23 1080.68C2777.23 1113.43 2757.58 1140.51 2719.15 1149.68ZM2650.14 1055.35H2568.91V1128.28H2650.14C2684.64 1128.28 2695.56 1110.81 2695.56 1090.72C2695.56 1071.51 2683.33 1055.35 2650.14 1055.35ZM2654.51 1257.99C2688.14 1257.99 2703.42 1240.96 2703.42 1217.81C2703.42 1194.23 2687.7 1178.94 2655.38 1178.94H2568.91V1257.99H2654.51Z" fill="#010B13"/>
<path d="M1914.28 1696.74C1912.45 1696.74 1909.4 1696.38 1906.23 1696.01V1681.61C1909.89 1682.1 1911.35 1682.22 1913.06 1682.22C1919.53 1682.22 1923.06 1679.91 1924.77 1674.29L1925.63 1671.73L1902.33 1611.1H1923.55L1934.29 1648.19C1935.02 1650.75 1935.39 1652.7 1935.63 1655.26H1936C1936.12 1653.19 1936.61 1651.24 1937.46 1648.19L1947.34 1611.1H1966.98L1945.14 1674.78C1939.78 1690.64 1930.51 1696.74 1914.28 1696.74Z" fill="#010B13"/>
<path d="M1851.7 1624.16V1611.1H1862.31V1596.47L1881.83 1588.9V1611.1H1896.35V1624.16H1881.83V1647.95C1881.83 1654.05 1884.88 1657.22 1890.73 1657.22C1893.05 1657.22 1894.52 1656.97 1896.35 1656.61V1672.1C1891.83 1672.95 1888.78 1673.32 1885.25 1673.32C1869.02 1673.32 1862.31 1665.88 1862.31 1652.58V1624.16H1851.7Z" fill="#010B13"/>
<path d="M1823.04 1602.32V1584.51H1843.41V1602.32H1823.04ZM1823.28 1672.1V1611.1H1842.92V1672.1H1823.28Z" fill="#010B13"/>
<path d="M1785.24 1673.56C1771.82 1673.56 1760.84 1668.56 1754.99 1658.93L1766.33 1650.39C1770.6 1656.97 1777.19 1660.27 1785.61 1660.27C1791.95 1660.27 1795.12 1658.32 1795.12 1654.9C1795.12 1651.24 1793.17 1649.9 1786.46 1648.92L1777.68 1647.7C1764.5 1645.75 1758.28 1639.28 1758.28 1628.92C1758.28 1617.08 1768.29 1609.64 1785.12 1609.64C1797.44 1609.64 1807.81 1614.15 1812.81 1621.72L1802.69 1630.87C1798.17 1625.74 1792.07 1622.69 1784.51 1622.69C1778.66 1622.69 1775.97 1624.28 1775.97 1627.7C1775.97 1630.62 1777.8 1632.21 1783.17 1632.94L1794.03 1634.65C1807.08 1636.48 1812.2 1642.94 1812.2 1653.44C1812.2 1665.88 1802.32 1673.56 1785.24 1673.56Z" fill="#010B13"/>
<path d="M1730.08 1626.84C1733.25 1615.86 1739.96 1609.64 1750.45 1609.64H1751.67V1628.31C1750.45 1628.18 1749.48 1628.18 1748.01 1628.18C1742.77 1628.18 1738.86 1629.53 1736.18 1631.84C1732.27 1635.5 1731.3 1640.99 1731.3 1647.21V1672.1H1711.66V1611.1H1730.08V1626.84Z" fill="#010B13"/>
<path d="M1699.39 1640.14V1645.99H1657.06C1657.18 1654.29 1662.92 1659.54 1671.09 1659.54C1677.07 1659.54 1681.58 1656.61 1684.39 1651L1698.78 1657.58C1693.9 1667.59 1683.53 1673.56 1670.85 1673.56C1650.72 1673.56 1638.52 1661.97 1638.52 1642.21C1638.52 1622.21 1650.47 1609.64 1669.5 1609.64C1688.66 1609.64 1699.39 1620.74 1699.39 1640.14ZM1680.48 1635.01V1634.53C1680.48 1625.87 1676.46 1621.23 1669.14 1621.23C1661.57 1621.23 1657.31 1626.35 1657.06 1635.01H1680.48Z" fill="#010B13"/>
<path d="M1593.91 1672.1L1572.69 1611.1H1592.82L1602.7 1647.09C1603.67 1650.51 1604.04 1652.95 1604.53 1655.75H1604.77C1605.26 1652.95 1605.62 1650.51 1606.6 1647.09L1616.48 1611.1H1636.61L1615.26 1672.1H1593.91Z" fill="#010B13"/>
<path d="M1544.15 1602.32V1584.51H1564.52V1602.32H1544.15ZM1544.39 1672.1V1611.1H1564.04V1672.1H1544.39Z" fill="#010B13"/>
<path d="M1470.06 1672.1V1611.1H1488.84V1622.82C1493.11 1613.91 1499.82 1609.52 1509.09 1609.52C1522.27 1609.52 1528.98 1617.94 1528.98 1634.28V1672.1H1509.46V1636.97C1509.46 1628.55 1506.53 1624.52 1500.31 1624.52C1493.48 1624.52 1489.7 1629.77 1489.7 1639.16V1672.1H1470.06Z" fill="#010B13"/>
<path d="M1380.93 1585.49H1401.55V1640.99C1401.55 1651.12 1407.52 1657.46 1417.65 1657.46C1427.9 1657.46 1433.75 1651.12 1433.75 1640.99V1585.49H1454.37V1641.85C1454.37 1661.61 1440.71 1674.17 1417.65 1674.17C1394.59 1674.17 1380.93 1661.61 1380.93 1641.85V1585.49Z" fill="#010B13"/>
<path d="M1296.48 1673.56C1281.84 1673.56 1272.08 1660.88 1272.08 1641.85C1272.08 1622.45 1282.32 1609.64 1297.57 1609.64C1305.63 1609.64 1311.72 1612.93 1314.77 1619.28V1583.66H1334.29V1672.1H1315.75V1661.61C1312.7 1668.93 1305.38 1673.56 1296.48 1673.56ZM1304.16 1660.02C1310.87 1660.02 1315.02 1654.05 1315.02 1644.53V1639.28C1315.02 1628.92 1310.87 1623.18 1303.92 1623.18C1296.48 1623.18 1292.21 1629.77 1292.21 1641.48C1292.21 1652.95 1296.72 1660.02 1304.16 1660.02Z" fill="#010B13"/>
<path d="M1245.57 1626.84C1248.74 1615.86 1255.45 1609.64 1265.94 1609.64H1267.16V1628.31C1265.94 1628.18 1264.96 1628.18 1263.5 1628.18C1258.25 1628.18 1254.35 1629.53 1251.67 1631.84C1247.76 1635.5 1246.79 1640.99 1246.79 1647.21V1672.1H1227.15V1611.1H1245.57V1626.84Z" fill="#010B13"/>
<path d="M1173.2 1673.56C1160.63 1673.56 1152.21 1666.37 1152.21 1655.51C1152.21 1649.78 1154.29 1645.26 1158.43 1642.33C1162.46 1639.53 1168.32 1637.58 1177.59 1636.36L1192.35 1634.28V1632.21C1192.35 1625.26 1189.42 1622.21 1183.32 1622.21C1177.34 1622.21 1173.93 1625.38 1173.56 1631.23H1154.17C1155.14 1617.69 1166.12 1609.64 1183.44 1609.64C1203.08 1609.64 1211.87 1617.33 1211.87 1634.89V1655.14C1211.87 1662.34 1212.48 1668.32 1213.58 1672.1H1194.54C1193.93 1669.17 1193.69 1665.88 1193.57 1662.46C1190.52 1669.29 1182.71 1673.56 1173.2 1673.56ZM1180.52 1661.12C1187.96 1661.12 1192.96 1656.12 1192.96 1648.8V1643.92L1182.47 1645.63C1175.27 1646.97 1171.98 1649.53 1171.98 1654.05C1171.98 1658.32 1175.39 1661.12 1180.52 1661.12Z" fill="#010B13"/>
<path d="M1107.38 1672.1L1086.15 1611.1H1106.28L1116.16 1647.09C1117.14 1650.51 1117.5 1652.95 1117.99 1655.75H1118.24C1118.72 1652.95 1119.09 1650.51 1120.07 1647.09L1129.95 1611.1H1150.07L1128.73 1672.1H1107.38Z" fill="#010B13"/>
<path d="M1059 1626.84C1062.18 1615.86 1068.89 1609.64 1079.38 1609.64H1080.6V1628.31C1079.38 1628.18 1078.4 1628.18 1076.94 1628.18C1071.69 1628.18 1067.79 1629.53 1065.1 1631.84C1061.2 1635.5 1060.22 1640.99 1060.22 1647.21V1672.1H1040.58V1611.1H1059V1626.84Z" fill="#010B13"/>
<path d="M986.636 1673.56C974.071 1673.56 965.654 1666.37 965.654 1655.51C965.654 1649.78 967.728 1645.26 971.875 1642.33C975.901 1639.53 981.757 1637.58 991.028 1636.36L1005.79 1634.28V1632.21C1005.79 1625.26 1002.86 1622.21 996.762 1622.21C990.784 1622.21 987.368 1625.38 987.002 1631.23H967.606C968.582 1617.69 979.561 1609.64 996.884 1609.64C1016.52 1609.64 1025.31 1617.33 1025.31 1634.89V1655.14C1025.31 1662.34 1025.92 1668.32 1027.02 1672.1H1007.98C1007.37 1669.17 1007.13 1665.88 1007.01 1662.46C1003.96 1669.29 996.152 1673.56 986.636 1673.56ZM993.956 1661.12C1001.4 1661.12 1006.4 1656.12 1006.4 1648.8V1643.92L995.908 1645.63C988.71 1646.97 985.416 1649.53 985.416 1654.05C985.416 1658.32 988.832 1661.12 993.956 1661.12Z" fill="#010B13"/>
<path d="M953.48 1585.49V1672.1H932.863V1636.11H899.559V1672.1H878.943V1585.49H899.559V1620.25H932.863V1585.49H953.48Z" fill="#010B13"/>
<path d="M798.601 1619.64V1611.1H809.946V1595.12L820.315 1590.73V1611.1H835.564V1619.64H820.315V1653.43C820.315 1660.39 822.999 1663.44 829.22 1663.44C831.904 1663.44 833.49 1663.07 835.564 1662.58V1672.1C832.88 1672.83 830.44 1673.2 826.537 1673.2C813.362 1673.2 809.946 1665.15 809.946 1653.8V1619.64H798.601Z" fill="#010B13"/>
<path d="M759.497 1673.56C747.054 1673.56 738.881 1666.49 738.881 1655.63C738.881 1649.53 741.931 1644.29 747.42 1641.24C752.056 1638.92 757.912 1637.45 767.915 1636.23L779.26 1634.89V1633.92C779.26 1622.69 775.234 1618.18 765.841 1618.18C757.546 1618.18 752.422 1622.57 751.934 1630.26H740.833C741.687 1617.81 751.446 1609.64 765.719 1609.64C782.432 1609.64 789.751 1617.2 789.751 1635.01V1651.48C789.751 1660.88 790.361 1667.34 791.825 1672.1H780.968C780.48 1668.93 780.114 1664.9 779.992 1661C777.186 1668.81 769.501 1673.56 759.497 1673.56ZM761.815 1665.02C772.428 1665.02 779.382 1657.34 779.382 1645.51V1642.46L762.791 1644.9C753.764 1646.24 749.86 1649.41 749.86 1655.39C749.86 1661.36 754.374 1665.02 761.815 1665.02Z" fill="#010B13"/>
<path d="M650.051 1696.74C648.221 1696.74 645.171 1696.38 641.999 1696.01V1681.61C645.659 1682.1 647.123 1682.22 648.831 1682.22C655.296 1682.22 658.834 1679.91 660.542 1674.29L661.396 1671.73L638.096 1611.1H659.322L670.057 1648.19C670.789 1650.75 671.155 1652.7 671.399 1655.26H671.765C671.887 1653.19 672.375 1651.24 673.229 1648.19L683.11 1611.1H702.751L680.915 1674.78C675.547 1690.64 666.276 1696.74 650.051 1696.74Z" fill="#010B13"/>
<path d="M587.468 1624.16V1611.1H598.081V1596.47L617.6 1588.9V1611.1H632.117V1624.16H617.6V1647.95C617.6 1654.05 620.649 1657.22 626.505 1657.22C628.823 1657.22 630.287 1656.97 632.117 1656.61V1672.1C627.603 1672.95 624.553 1673.32 621.015 1673.32C604.791 1673.32 598.081 1665.88 598.081 1652.58V1624.16H587.468Z" fill="#010B13"/>
<path d="M583.839 1640.14V1645.99H541.509C541.63 1654.29 547.364 1659.54 555.537 1659.54C561.515 1659.54 566.029 1656.61 568.835 1651L583.229 1657.58C578.35 1667.59 567.981 1673.56 555.293 1673.56C535.165 1673.56 522.966 1661.97 522.966 1642.21C522.966 1622.21 534.921 1609.64 553.952 1609.64C573.104 1609.64 583.839 1620.74 583.839 1640.14ZM564.931 1635.01V1634.53C564.931 1625.87 560.905 1621.23 553.586 1621.23C546.022 1621.23 541.752 1626.35 541.509 1635.01H564.931Z" fill="#010B13"/>
<path d="M491.381 1602.32V1584.51H511.754V1602.32H491.381ZM491.625 1672.1V1611.1H511.266V1672.1H491.625Z" fill="#010B13"/>
<path d="M451.166 1673.56C431.891 1673.56 419.082 1661 419.082 1641.6C419.082 1621.72 431.403 1609.64 451.41 1609.64C467.391 1609.64 478.004 1617.45 480.322 1631.23L461.901 1635.01C460.803 1627.82 456.899 1624.04 450.922 1624.04C443.48 1624.04 438.967 1630.38 438.967 1640.99C438.967 1652.46 443.358 1659.05 451.044 1659.05C457.143 1659.05 460.925 1655.02 462.023 1647.7L480.322 1651.73C478.126 1665.15 466.781 1673.56 451.166 1673.56Z" fill="#010B13"/>
<path d="M379.56 1673.56C361.627 1673.56 347.964 1662.46 347.964 1641.48C347.964 1620.5 361.627 1609.64 379.56 1609.64C397.614 1609.64 411.277 1620.5 411.277 1641.48C411.277 1662.46 397.614 1673.56 379.56 1673.56ZM379.56 1660.02C387.245 1660.02 391.759 1653.92 391.759 1641.48C391.759 1628.92 387.245 1623.18 379.56 1623.18C371.996 1623.18 367.482 1628.92 367.482 1641.48C367.482 1653.92 371.996 1660.02 379.56 1660.02Z" fill="#010B13"/>
<path d="M305.52 1674.17C286.855 1674.17 273.436 1666.24 267.458 1654.05L282.707 1643.31C287.221 1652.22 294.785 1658.19 306.252 1658.19C314.547 1658.19 321.135 1655.14 321.135 1648.31C321.135 1641.85 317.353 1639.41 308.57 1637.58L296.98 1635.14C281.853 1631.84 273.07 1623.67 273.07 1609.15C273.07 1593.29 286.001 1583.41 306.862 1583.41C322.233 1583.41 335.164 1589.02 341.263 1600.61L327.844 1611.96C323.453 1603.54 315.401 1598.66 305.52 1598.66C297.346 1598.66 292.101 1602.08 292.101 1607.57C292.101 1613.18 295.517 1615.98 304.666 1618.06L317.231 1620.74C332.602 1624.16 340.897 1631.48 340.897 1646.36C340.897 1662.83 328.21 1674.17 305.52 1674.17Z" fill="#010B13"/>
<path d="M196.454 1673.56C181.693 1673.56 171.69 1660.75 171.69 1641.6C171.69 1622.82 182.425 1609.64 197.674 1609.64C205.726 1609.64 211.703 1612.93 215.607 1620.13V1583.66H225.976V1672.1H216.217V1660.75C212.557 1668.93 205.969 1673.56 196.454 1673.56ZM199.26 1664.41C209.385 1664.41 215.851 1656.12 215.851 1643.07V1640.26C215.851 1626.96 209.507 1618.79 199.26 1618.79C188.891 1618.79 182.669 1627.21 182.669 1641.6C182.669 1655.88 188.891 1664.41 199.26 1664.41Z" fill="#010B13"/>
<path d="M106.536 1672.1V1611.1H116.295V1623.18C120.321 1613.91 127.03 1609.4 136.667 1609.4C150.087 1609.4 157.04 1617.81 157.04 1634.16V1672.1H146.671V1634.77C146.671 1624.04 142.157 1618.55 133.252 1618.55C123.126 1618.55 116.905 1626.72 116.905 1640.26V1672.1H106.536Z" fill="#010B13"/>
<path d="M55.9027 1673.56C43.4595 1673.56 35.2861 1666.49 35.2861 1655.63C35.2861 1649.53 38.3359 1644.29 43.8255 1641.24C48.4612 1638.92 54.3168 1637.45 64.3201 1636.23L75.6652 1634.89V1633.92C75.6652 1622.69 71.6395 1618.18 62.2462 1618.18C53.9508 1618.18 48.8272 1622.57 48.3392 1630.26H37.238C38.0919 1617.81 47.8512 1609.64 62.1242 1609.64C78.837 1609.64 86.1565 1617.2 86.1565 1635.01V1651.48C86.1565 1660.88 86.7664 1667.34 88.2303 1672.1H77.3731C76.8852 1668.93 76.5192 1664.9 76.3972 1661C73.5914 1668.81 65.9059 1673.56 55.9027 1673.56ZM58.2205 1665.02C68.8337 1665.02 75.7872 1657.34 75.7872 1645.51V1642.46L59.1964 1644.9C50.1691 1646.24 46.2653 1649.41 46.2653 1655.39C46.2653 1661.36 50.779 1665.02 58.2205 1665.02Z" fill="#010B13"/>
<path d="M1962.49 1492.41V1479.36H1973.1V1464.72L1992.62 1457.16V1479.36H2007.14V1492.41H1992.62V1516.2C1992.62 1522.3 1995.67 1525.47 2001.53 1525.47C2003.85 1525.47 2005.31 1525.23 2007.14 1524.86V1540.36C2002.63 1541.21 1999.58 1541.58 1996.04 1541.58C1979.81 1541.58 1973.1 1534.13 1973.1 1520.84V1492.41H1962.49Z" fill="#010B13"/>
<path d="M1958.86 1508.39V1514.25H1916.53C1916.66 1522.55 1922.39 1527.79 1930.56 1527.79C1936.54 1527.79 1941.05 1524.86 1943.86 1519.25L1958.25 1525.84C1953.37 1535.84 1943.01 1541.82 1930.32 1541.82C1910.19 1541.82 1897.99 1530.23 1897.99 1510.47C1897.99 1490.46 1909.95 1477.9 1928.98 1477.9C1948.13 1477.9 1958.86 1489 1958.86 1508.39ZM1939.96 1503.27V1502.78C1939.96 1494.12 1935.93 1489.49 1928.61 1489.49C1921.05 1489.49 1916.78 1494.61 1916.53 1503.27H1939.96Z" fill="#010B13"/>
<path d="M1828.29 1540.36V1479.36H1847.07V1491.07C1851.34 1482.17 1858.05 1477.77 1867.32 1477.77C1880.5 1477.77 1887.21 1486.19 1887.21 1502.54V1540.36H1867.69V1505.22C1867.69 1496.81 1864.76 1492.78 1858.54 1492.78C1851.71 1492.78 1847.93 1498.02 1847.93 1507.42V1540.36H1828.29Z" fill="#010B13"/>
<path d="M1796.43 1495.1C1799.61 1484.12 1806.32 1477.9 1816.81 1477.9H1818.03V1496.56C1816.81 1496.44 1815.83 1496.44 1814.37 1496.44C1809.12 1496.44 1805.22 1497.78 1802.53 1500.1C1798.63 1503.76 1797.65 1509.25 1797.65 1515.47V1540.36H1778.01V1479.36H1796.43V1495.1Z" fill="#010B13"/>
<path d="M1765.75 1508.39V1514.25H1723.42C1723.54 1522.55 1729.27 1527.79 1737.45 1527.79C1743.43 1527.79 1747.94 1524.86 1750.74 1519.25L1765.14 1525.84C1760.26 1535.84 1749.89 1541.82 1737.2 1541.82C1717.08 1541.82 1704.88 1530.23 1704.88 1510.47C1704.88 1490.46 1716.83 1477.9 1735.86 1477.9C1755.01 1477.9 1765.75 1489 1765.75 1508.39ZM1746.84 1503.27V1502.78C1746.84 1494.12 1742.82 1489.49 1735.5 1489.49C1727.93 1489.49 1723.66 1494.61 1723.42 1503.27H1746.84Z" fill="#010B13"/>
<path d="M1654.77 1492.41V1479.36H1665.38V1464.72L1684.9 1457.16V1479.36H1699.42V1492.41H1684.9V1516.2C1684.9 1522.3 1687.95 1525.47 1693.81 1525.47C1696.13 1525.47 1697.59 1525.23 1699.42 1524.86V1540.36C1694.91 1541.21 1691.86 1541.58 1688.32 1541.58C1672.09 1541.58 1665.38 1534.13 1665.38 1520.84V1492.41H1654.77Z" fill="#010B13"/>
<path d="M1589.19 1540.36V1479.36H1607.98V1491.07C1612.25 1482.17 1618.96 1477.77 1628.23 1477.77C1641.4 1477.77 1648.11 1486.19 1648.11 1502.54V1540.36H1628.59V1505.22C1628.59 1496.81 1625.66 1492.78 1619.44 1492.78C1612.61 1492.78 1608.83 1498.02 1608.83 1507.42V1540.36H1589.19Z" fill="#010B13"/>
<path d="M1571.94 1540.35H1551.33V1453.74H1571.94V1540.35Z" fill="#010B13"/>
<path d="M1488.48 1495.1C1491.65 1484.12 1498.36 1477.9 1508.85 1477.9H1510.07V1496.56C1508.85 1496.44 1507.87 1496.44 1506.41 1496.44C1501.16 1496.44 1497.26 1497.78 1494.58 1500.1C1490.67 1503.76 1489.7 1509.25 1489.7 1515.47V1540.36H1470.06V1479.36H1488.48V1495.1Z" fill="#010B13"/>
<path d="M1426.61 1541.82C1408.68 1541.82 1395.01 1530.72 1395.01 1509.74C1395.01 1488.75 1408.68 1477.9 1426.61 1477.9C1444.66 1477.9 1458.33 1488.75 1458.33 1509.74C1458.33 1530.72 1444.66 1541.82 1426.61 1541.82ZM1426.61 1528.28C1434.29 1528.28 1438.81 1522.18 1438.81 1509.74C1438.81 1497.17 1434.29 1491.44 1426.61 1491.44C1419.05 1491.44 1414.53 1497.17 1414.53 1509.74C1414.53 1522.18 1419.05 1528.28 1426.61 1528.28Z" fill="#010B13"/>
<path d="M1391.11 1479.36V1492.41H1376.96V1540.36H1357.44V1492.41H1347.68V1479.36H1357.44V1473.63C1357.44 1459.11 1365.86 1451.18 1381.35 1451.18C1384.77 1451.18 1388.06 1451.55 1391.11 1452.28V1466.31C1389.04 1465.94 1386.96 1465.7 1385.13 1465.7C1379.77 1465.7 1376.96 1468.62 1376.96 1474.11V1479.36H1391.11Z" fill="#010B13"/>
<path d="M1291.79 1495.1C1294.96 1484.12 1301.67 1477.9 1312.16 1477.9H1313.38V1496.56C1312.16 1496.44 1311.19 1496.44 1309.72 1496.44C1304.48 1496.44 1300.57 1497.78 1297.89 1500.1C1293.99 1503.76 1293.01 1509.25 1293.01 1515.47V1540.36H1273.37V1479.36H1291.79V1495.1Z" fill="#010B13"/>
<path d="M1261.11 1508.39V1514.25H1218.77C1218.9 1522.55 1224.63 1527.79 1232.8 1527.79C1238.78 1527.79 1243.29 1524.86 1246.1 1519.25L1260.5 1525.84C1255.62 1535.84 1245.25 1541.82 1232.56 1541.82C1212.43 1541.82 1200.23 1530.23 1200.23 1510.47C1200.23 1490.46 1212.19 1477.9 1231.22 1477.9C1250.37 1477.9 1261.11 1489 1261.11 1508.39ZM1242.2 1503.27V1502.78C1242.2 1494.12 1238.17 1489.49 1230.85 1489.49C1223.29 1489.49 1219.02 1494.61 1218.77 1503.27H1242.2Z" fill="#010B13"/>
<path d="M1150.13 1492.41V1479.36H1160.74V1464.72L1180.26 1457.16V1479.36H1194.78V1492.41H1180.26V1516.2C1180.26 1522.3 1183.31 1525.47 1189.17 1525.47C1191.48 1525.47 1192.95 1525.23 1194.78 1524.86V1540.36C1190.26 1541.21 1187.21 1541.58 1183.68 1541.58C1167.45 1541.58 1160.74 1534.13 1160.74 1520.84V1492.41H1150.13Z" fill="#010B13"/>
<path d="M1084.54 1540.35V1479.36H1103.33V1491.07C1107.6 1482.16 1114.31 1477.77 1123.58 1477.77C1136.76 1477.77 1143.47 1486.19 1143.47 1502.54V1540.35H1123.95V1505.22C1123.95 1496.8 1121.02 1492.78 1114.8 1492.78C1107.97 1492.78 1104.19 1498.02 1104.19 1507.42V1540.35H1084.54Z" fill="#010B13"/>
<path d="M1072.28 1508.39V1514.25H1029.95C1030.07 1522.55 1035.81 1527.79 1043.98 1527.79C1049.96 1527.79 1054.47 1524.86 1057.28 1519.25L1071.67 1525.84C1066.79 1535.84 1056.42 1541.82 1043.74 1541.82C1023.61 1541.82 1011.41 1530.23 1011.41 1510.47C1011.41 1490.46 1023.36 1477.9 1042.4 1477.9C1061.55 1477.9 1072.28 1489 1072.28 1508.39ZM1053.37 1503.27V1502.78C1053.37 1494.12 1049.35 1489.49 1042.03 1489.49C1034.47 1489.49 1030.2 1494.61 1029.95 1503.27H1053.37Z" fill="#010B13"/>
<path d="M965.459 1542.43C938.011 1542.43 923.25 1524.49 923.25 1497.17C923.25 1469.84 939.353 1451.67 965.703 1451.67C987.783 1451.67 1001.69 1463.87 1004.01 1482.77L983.148 1486.43C981.928 1474.97 975.584 1468.26 965.215 1468.26C952.04 1468.26 944.354 1479.36 944.354 1497.05C944.354 1514.25 952.162 1525.71 965.825 1525.71C975.462 1525.71 981.928 1519.13 983.636 1507.9L1004.5 1512.42C1000.35 1530.72 986.929 1542.43 965.459 1542.43Z" fill="#010B13"/>
<path d="M823.408 1540.35V1479.36H842.194V1491.07C846.464 1482.16 853.174 1477.77 862.445 1477.77C875.62 1477.77 882.329 1486.19 882.329 1502.54V1540.35H862.811V1505.22C862.811 1496.8 859.883 1492.78 853.662 1492.78C846.83 1492.78 843.048 1498.02 843.048 1507.42V1540.35H823.408Z" fill="#010B13"/>
<path d="M787.187 1470.58V1452.76H807.559V1470.58H787.187ZM787.431 1540.35V1479.36H807.071V1540.35H787.431Z" fill="#010B13"/>
<path d="M775.165 1508.39V1514.25H732.834C732.956 1522.55 738.689 1527.79 746.863 1527.79C752.84 1527.79 757.354 1524.86 760.16 1519.25L774.555 1525.84C769.675 1535.84 759.306 1541.82 746.619 1541.82C726.49 1541.82 714.291 1530.23 714.291 1510.47C714.291 1490.46 726.246 1477.9 745.277 1477.9C764.429 1477.9 775.165 1489 775.165 1508.39ZM756.256 1503.27V1502.78C756.256 1494.12 752.23 1489.49 744.911 1489.49C737.347 1489.49 733.078 1494.61 732.834 1503.27H756.256Z" fill="#010B13"/>
<path d="M702.01 1451.91V1540.36H682.369V1451.91H702.01Z" fill="#010B13"/>
<path d="M648.594 1540.35L626.025 1503.39L616.144 1514.86V1540.35H595.527V1453.74H616.144V1490.95L646.764 1453.74H670.308L640.054 1488.87L672.016 1540.35H648.594Z" fill="#010B13"/>
<path d="M490.194 1540.35V1479.36H508.981V1491.07C513.251 1482.16 519.96 1477.77 529.232 1477.77C542.407 1477.77 549.116 1486.19 549.116 1502.54V1540.35H529.597V1505.22C529.597 1496.8 526.67 1492.78 520.448 1492.78C513.617 1492.78 509.835 1498.02 509.835 1507.42V1540.35H490.194Z" fill="#010B13"/>
<path d="M436.247 1541.82C423.682 1541.82 415.264 1534.62 415.264 1523.77C415.264 1518.03 417.338 1513.52 421.486 1510.59C425.511 1507.78 431.367 1505.83 440.638 1504.61L455.399 1502.54V1500.46C455.399 1493.51 452.471 1490.46 446.372 1490.46C440.394 1490.46 436.979 1493.63 436.613 1499.49H417.216C418.192 1485.95 429.171 1477.9 446.494 1477.9C466.134 1477.9 474.918 1485.58 474.918 1503.15V1523.4C474.918 1530.6 475.528 1536.57 476.626 1540.36H457.595C456.985 1537.43 456.741 1534.13 456.619 1530.72C453.569 1537.55 445.762 1541.82 436.247 1541.82ZM443.566 1529.38C451.008 1529.38 456.009 1524.38 456.009 1517.06V1512.18L445.518 1513.88C438.32 1515.23 435.027 1517.79 435.027 1522.3C435.027 1526.57 438.442 1529.38 443.566 1529.38Z" fill="#010B13"/>
<path d="M311.735 1479.36H330.522V1490.34C334.425 1481.92 340.281 1477.77 349.308 1477.77C357.97 1477.77 363.581 1481.8 366.631 1490.46C371.023 1481.92 377.366 1477.77 386.15 1477.77C397.983 1477.77 404.936 1486.19 404.936 1500.46V1540.35H385.418V1504.61C385.418 1496.44 382.856 1492.78 377.244 1492.78C371.389 1492.78 368.095 1497.17 368.095 1505.34V1540.35H348.576V1504.49C348.576 1496.56 345.892 1492.78 340.525 1492.78C334.669 1492.78 331.375 1497.29 331.375 1505.46V1540.35H311.735V1479.36Z" fill="#010B13"/>
<path d="M280.78 1540.36L266.263 1515.71L259.554 1522.91V1540.36H239.913V1451.91H259.554V1503.27L279.316 1479.36H302.007L279.804 1503.64L302.617 1540.36H280.78Z" fill="#010B13"/>
<path d="M207.45 1495.1C210.622 1484.12 217.331 1477.9 227.823 1477.9H229.042V1496.56C227.823 1496.44 226.847 1496.44 225.383 1496.44C220.137 1496.44 216.233 1497.78 213.55 1500.1C209.646 1503.76 208.67 1509.25 208.67 1515.47V1540.36H189.029V1479.36H207.45V1495.1Z" fill="#010B13"/>
<path d="M176.766 1508.39V1514.25H134.435C134.557 1522.55 140.29 1527.79 148.464 1527.79C154.441 1527.79 158.955 1524.86 161.761 1519.25L176.156 1525.84C171.276 1535.84 160.907 1541.82 148.22 1541.82C128.091 1541.82 115.892 1530.23 115.892 1510.47C115.892 1490.46 127.847 1477.9 146.878 1477.9C166.03 1477.9 176.766 1489 176.766 1508.39ZM157.857 1503.27V1502.78C157.857 1494.12 153.831 1489.49 146.512 1489.49C138.948 1489.49 134.679 1494.61 134.435 1503.27H157.857Z" fill="#010B13"/>
<path d="M91.0365 1495.22C102.26 1496.93 108.847 1504.49 108.847 1515.96C108.847 1529.62 99.2099 1540.35 79.4473 1540.35H38.8242V1453.74H77.8614C97.624 1453.74 106.651 1463.38 106.651 1476.07C106.651 1485.09 101.162 1492.53 91.0365 1495.22ZM72.3718 1468.26H59.4407V1489.36H72.3718C81.6431 1489.36 85.1809 1484.6 85.1809 1478.75C85.1809 1472.65 81.2772 1468.26 72.3718 1468.26ZM73.7137 1525.84C83.107 1525.84 87.3767 1520.84 87.3767 1514.25C87.3767 1507.54 82.8631 1503.03 74.2017 1503.03H59.4407V1525.84H73.7137Z" fill="#010B13"/>
<path d="M2729.49 155.951C2690.88 159.145 2650.9 165.719 2613.09 153.906C2532.33 124.581 2521.71 30.4748 2397.51 18.4025C2330.41 11.6108 2259.03 46.7959 2228.12 107.704C2213.53 135.318 2206.23 165.831 2194.3 194.54C2180.56 226.525 2151.87 247.5 2126.9 270.237C2021.34 358.546 2029.58 493.102 2185.88 497.62C2249.25 498.93 2302.82 454.589 2333.3 402.036C2359 361.133 2372.95 328.509 2369.76 279.215C2369.62 260.667 2367.44 242.096 2370.38 223.681C2371.87 214.581 2378.55 207.751 2386.42 204.038C2434.33 188.545 2388.22 280.275 2444.89 305.801C2502.25 335.072 2560.06 276.28 2618.64 293.471C2636.82 298.82 2649.86 309.874 2642.03 329.901C2621.39 381.879 2563.85 362.487 2522.37 379.888C2491.61 393.132 2471.66 428.381 2473.46 461.336C2474.7 484.124 2491.3 501.007 2508.43 514.248C2535.94 536.183 2575.86 553.489 2549.52 594.366C2531.06 629.05 2475.01 635.646 2453.14 600.887C2440.89 581.367 2436.9 558.387 2430.21 536.672C2422.56 505.459 2397.82 480.044 2364.55 479.106C2318.75 474.39 2289.25 518.396 2276.04 556.659C2258.1 603.75 2261.06 633.867 2199.82 630.535C2159.57 628.123 2116.71 637.525 2090.67 670.683C2047.04 722.617 2012.12 821.967 2076.82 870.741C2118.29 899.467 2178.32 899.511 2220.11 871.303C2260.89 842.573 2274.17 790.86 2279.89 743.871C2282.71 723.004 2287.11 697.435 2307.1 686.306C2314.69 681.801 2319.86 682.927 2325.6 689.674C2330.37 695.191 2332.55 702.432 2335.44 709.014C2344.85 733.792 2352.05 759.695 2366.72 782.095C2397.31 831.931 2468.29 853.877 2519.63 823.622C2577.17 789.009 2610.23 727.027 2653.09 677.237C2662.58 664.687 2676.04 657.004 2691.34 653.777C2708.27 649.323 2726.03 647.125 2741.66 638.804C2769.35 624.066 2787.01 593.423 2791.31 562.97C2792.88 545.188 2785.09 527.476 2773.81 513.975C2765.11 501.426 2749.55 491.095 2748.62 474.813C2747.67 400.879 2854.55 332.34 2859.15 256.455C2862.65 186.276 2792.46 148.035 2729.49 155.951ZM2834.14 286.878C2821.68 312.202 2804.7 334.797 2788.24 356.741C2786.73 358.716 2785.24 360.715 2783.78 362.689C2765.76 386.755 2748.77 410.396 2737.81 437.369C2730.23 456.292 2729.41 470.157 2731.7 480.992C2733.99 491.876 2739.56 500.55 2746.28 508.89C2748.41 511.585 2750.52 514.038 2752.68 516.562L2752.7 516.561C2754 518.119 2755.34 519.675 2756.72 521.303C2760.17 525.458 2763.64 529.831 2766.46 534.568C2772.31 544.35 2775.38 555.57 2771.59 569.616C2766.2 590.114 2757.8 603.815 2747.03 613.176C2736.37 622.485 2723.99 626.993 2711.84 630.301C2707.53 631.478 2703.26 632.508 2699.04 633.511C2678.97 638.37 2660.24 642.888 2644.21 660.731L2644.07 660.882L2643.9 661.034C2632.26 672.494 2620.32 687.928 2607.54 705.045C2605.52 707.744 2603.48 710.493 2601.42 713.266C2590.59 727.857 2579.19 743.199 2567.2 757.395C2538.97 790.803 2505.35 820.49 2463.76 818.856C2417.71 818.039 2381.08 783.886 2366.65 743.095C2363.21 735.366 2360.33 726.935 2357.56 718.89C2356.2 714.854 2354.84 710.915 2353.46 707.196C2349.18 695.558 2344.35 685.082 2336.96 676.425C2330.85 670.032 2324.31 667.326 2317.92 666.9C2311.34 666.481 2304.32 668.462 2297.48 672.453C2283.6 680.589 2272.28 696.098 2269.35 710.769L2269.27 711.185L2269.14 711.579C2264.55 725.921 2262.5 741.022 2260.37 756.758L2260.15 758.225C2256.61 782.765 2249.35 807.027 2236.03 828.711C2214.63 866.881 2166.08 880.331 2126.27 872.747C2106.13 868.904 2087.29 859.566 2074.63 844.364C2061.87 829.045 2055.95 808.445 2060.59 783.378C2063.62 743.586 2080.07 704.865 2108.16 676.082L2108.37 675.856L2108.58 675.678L2109.57 674.815C2120.01 665.685 2132.15 655.107 2148.18 651.367C2159.34 648.119 2171.44 647.244 2183.2 646.916C2187.5 646.81 2191.7 646.755 2195.83 646.703C2203.41 646.624 2210.78 646.552 2218.15 646.019C2240.39 644.462 2258.33 639.023 2269.31 619.49L2269.34 619.489C2276.01 607.699 2280.34 594.825 2284.78 581.146L2285.28 579.62C2287.41 573.148 2289.55 566.506 2292.06 559.85C2294.54 553.219 2297.36 546.601 2300.78 540.204C2308.09 525.132 2319.62 510.515 2334.16 501.941C2349.06 493.16 2367.04 490.833 2385.59 500.838C2394.57 505.133 2400.96 512.44 2405.73 520.754C2410.53 529.067 2413.97 538.814 2416.83 548.51C2418.27 553.394 2419.59 558.356 2420.88 563.221L2421.25 564.593C2422.4 569.001 2423.53 573.289 2424.73 577.452C2427.37 586.718 2430.14 594.788 2433.65 601.08L2433.83 601.39L2433.97 601.726C2449.73 637.751 2498.21 652.413 2532.49 632.962L2532.7 632.833L2532.94 632.703C2549.6 624.782 2564.09 608.672 2570.95 590.553C2577.76 572.556 2576.81 553.528 2564.33 538.538L2564.3 538.539L2564.3 538.466C2556.01 528.237 2545.2 520.555 2533.4 512.155L2532.03 511.183C2520.03 502.668 2507.12 493.287 2497.55 480.064C2489.78 469.719 2486.96 457.615 2490.82 444.661C2495.58 426.398 2505.23 408.786 2522.41 397.783C2530.65 392.427 2539.79 390.298 2548.33 389.138C2552.28 388.607 2556.27 388.268 2560.03 387.938L2560.95 387.856C2565.07 387.488 2568.9 387.131 2572.6 386.584L2572.94 386.523L2573.3 386.51C2593.56 385.365 2611.09 381.449 2625.34 373.275C2639.39 365.23 2650.73 352.784 2658.26 333.692L2658.3 333.593C2664.32 318.957 2660.34 302.42 2648.6 291.635C2622.64 269.692 2584.34 271.999 2550.76 281.917L2550.66 281.921L2550.59 281.972C2545.75 283.265 2540.6 284.861 2534.95 286.621C2530.82 287.914 2526.42 289.288 2521.73 290.674C2511 293.809 2499.34 296.783 2488 297.971C2476.72 299.156 2465.15 298.65 2454.93 294.181C2444.43 289.624 2436.1 281.171 2431.1 268.003L2430.97 267.667L2430.88 267.33C2428.53 258.71 2427.66 250.036 2427.12 241.764C2426.95 239.193 2426.81 236.693 2426.7 234.217C2426.37 228.588 2426.1 223.2 2425.45 217.752L2425.43 217.437L2425.4 217.122C2425.03 203.47 2416.88 193.892 2406.15 189.709C2395.28 185.481 2381.98 186.91 2371.79 195.618L2371.6 195.771L2371.44 195.898C2354.52 208.619 2352.69 230.787 2354.16 254.101L2354.17 254.247C2354.93 271.848 2355.28 289.61 2354.77 307.306L2354.79 307.864L2354.47 309.554C2352.96 317.754 2351.42 326.247 2349.32 334.615L2349.32 334.712C2346.3 346.006 2341.35 356.324 2335.99 366.001C2333.45 370.615 2330.77 375.137 2328.16 379.56L2327.77 380.23C2325.02 384.901 2322.34 389.448 2319.86 394.011L2319.79 394.135L2319.74 394.234C2293.79 438.356 2250.26 478.93 2194.74 481.957L2194.67 481.96C2140.23 484.364 2099.02 466.351 2081.03 434.029C2062.94 401.517 2070.24 357.972 2105.11 313.674C2117.89 297.48 2133.4 283.862 2148.31 270.753C2150.79 268.572 2153.26 266.416 2155.69 264.261C2172.93 248.928 2188.86 233.69 2200.13 214.414C2208.13 199.123 2213.97 183.787 2219.4 168.564C2220.35 165.928 2221.28 163.293 2222.21 160.658C2226.64 148.121 2231.07 135.609 2236.41 123.696C2249.55 94.4078 2268.48 68.1196 2307.98 49.0399C2353.01 26.3803 2407.36 26.022 2452.98 47.1335C2477.29 57.2701 2496.08 73.9527 2513.12 91.4764C2518.55 97.0673 2523.76 102.69 2528.87 108.244C2540.16 120.432 2551.11 132.267 2563.5 142.737L2563.58 142.807L2563.65 142.853C2599.85 175.053 2649.12 180.324 2697.52 174.686L2697.88 174.672C2703.31 174.306 2708.91 173.788 2714.65 173.24C2729.21 171.863 2744.58 170.408 2759.65 171.688C2787.72 173.664 2813.44 188.224 2828.69 209.363C2844.07 230.739 2848.71 258.875 2834.16 286.877L2834.14 286.878Z" fill="#010B13"/>
<path d="M2021.22 903.07C1985.82 908.92 1950.05 922.224 1921.43 944.194C1879.82 978.352 1860.85 1032.6 1853.58 1084.46C1845.3 1155.4 1901.54 1181.84 1960.61 1196.49C2058.39 1221.21 2121.37 1111.36 2144.17 1031.71C2166.52 962.695 2087.04 894.347 2021.22 903.07ZM2125.22 1031.44C2123 1039.16 2120.15 1046.56 2116.95 1054.74C2115.88 1057.46 2114.83 1060.15 2113.83 1062.81L2113.59 1063.4C2103.4 1085.58 2087.24 1118.07 2065.03 1142.58C2042.89 1167.01 2018.17 1179.84 1991.43 1180.81C1987.91 1180.93 1984.39 1180.87 1980.83 1180.58L1979.7 1180.4C1956.11 1174.81 1926.74 1167.87 1904.93 1153.85C1892.74 1146.03 1883.86 1136.52 1878.56 1125.65C1872.49 1113.28 1870.88 1098.77 1873.69 1082.57C1875.12 1057.52 1884.47 1031.53 1892.43 1011.7C1908.67 969.967 1947.91 938.253 2000.08 924.794L2000.51 924.681C2014.54 921.232 2030.44 917.302 2046.28 920.45L2046.53 920.49C2097.42 934.141 2121.99 968.146 2128.11 995.498L2128.22 995.981C2130.02 1006.78 2129.07 1018.05 2125.22 1031.44Z" fill="#010B13"/>
</svg>
