<?xml version="1.0" encoding="UTF-8"?><svg id="Layer_1" xmlns="http://www.w3.org/2000/svg" width="3.09in" height="1.25in" viewBox="0 0 222.32 90"><defs><style>.cls-1,.cls-2{fill:#fff;}.cls-2{font-family:Gotham-Book, Gotham;font-size:37.08px;}.cls-3{letter-spacing:-.02em;}.cls-4{letter-spacing:-.02em;}.cls-5{letter-spacing:-.01em;}.cls-6{letter-spacing:-.04em;}.cls-7{letter-spacing:-.04em;}.cls-8{letter-spacing:-.01em;}</style></defs><path class="cls-1" d="M19.86,31.64c-5.44,0-9.85,4.41-9.85,9.85s4.41,9.85,9.85,9.85,9.85-4.41,9.85-9.85-4.41-9.85-9.85-9.85ZM19.86,49.64c-4.5,0-8.15-3.65-8.15-8.15s3.65-8.15,8.15-8.15,8.15,3.65,8.15,8.15-3.65,8.15-8.15,8.15Z"/><circle class="cls-1" cx="19.86" cy="39.27" r="2.13"/><path class="cls-1" d="M16.38,44.72v-.07c0-1.5,1.21-2.71,2.71-2.71h1.56c1.5,0,2.71,1.21,2.71,2.71v.07c0,1.5-6.97,1.5-6.97,0Z"/><rect class="cls-1" x="30.9" y="38.97" width="1.92" height="5.69" transform="translate(-9.95 73.68) rotate(-90)"/><path class="cls-1" d="M46.13,30.92c-6.46,0-11.69,5.24-11.69,11.69s5.24,11.69,11.69,11.69,11.69-5.24,11.69-11.69-5.24-11.69-11.69-11.69ZM46.13,52.54c-5.48,0-9.92-4.44-9.92-9.92s4.44-9.92,9.92-9.92,9.92,4.44,9.92,9.92-4.44,9.92-9.92,9.92Z"/><rect class="cls-1" x="37.35" y="26.86" width="1.92" height="6.54" transform="translate(-10.27 26.24) rotate(-33.6)"/><text class="cls-2" transform="translate(69.05 57.16)"><tspan class="cls-6" x="0" y="0">K</tspan><tspan class="cls-7" x="25.06" y="0">e</tspan><tspan class="cls-3" x="45.66" y="0">y</tspan><tspan class="cls-4" x="66.94" y="0">r</tspan><tspan class="cls-5" x="81.26" y="0">i</tspan><tspan class="cls-8" x="90.47" y="0">n</tspan><tspan x="112.88" y="0">g</tspan></text><rect class="cls-1" x="51.17" y="26.48" width="1.92" height="6.4" transform="translate(18.06 -19.7) rotate(25.74)"/><rect class="cls-1" x="45.16" y="52.51" width="1.92" height="4.42" transform="translate(92.73 109.01) rotate(179.49)"/><path class="cls-1" d="M53.5,57.62h-14.75c-2.39,0-4.32,1.93-4.32,4.32v14.75c0,2.39,1.93,4.32,4.32,4.32h14.75c2.39,0,4.32-1.93,4.32-4.32v-14.75c0-2.39-1.93-4.32-4.32-4.32ZM56.04,76.4c0,1.57-1.27,2.83-2.83,2.83h-14.15c-1.57,0-2.83-1.27-2.83-2.83v-14.15c0-1.57,1.27-2.83,2.83-2.83h14.15c1.57,0,2.83,1.27,2.83,2.83v14.15Z"/><rect class="cls-1" x="43.31" y="55.28" width="5.79" height="3.97" rx="1.04" ry="1.04"/><path class="cls-1" d="M51.27,65.46c-.02-.14-.14-.24-.28-.24-2.56-.05-4.14-1.3-4.66-1.8-.11-.11-.28-.11-.4,0-.53.5-2.1,1.75-4.66,1.8-.14,0-.26.1-.28.24-.23,1.38-1.06,8.4,5.06,10.22.06.02.12.02.18,0,6.12-1.83,5.29-8.84,5.06-10.22ZM48.73,68.56l-.83.83s0,0,0,0l-1.8,1.8h0s-.62.62-.62.62l-1.13-1.13-.82-.82h-.01c-.31-.32-.31-.82,0-1.13.31-.31.81-.31,1.12,0l.83.83h0s.01.01.01.01l2.12-2.12h.01c.31-.32.81-.32,1.12-.01.31.31.31.81,0,1.12Z"/><path class="cls-1" d="M57.36,8.99c-5.44,0-9.85,4.41-9.85,9.85s4.41,9.85,9.85,9.85,9.85-4.41,9.85-9.85-4.41-9.85-9.85-9.85ZM57.36,26.99c-4.5,0-8.15-3.65-8.15-8.15s3.65-8.15,8.15-8.15,8.15,3.65,8.15,8.15-3.65,8.15-8.15,8.15Z"/><circle class="cls-1" cx="57.36" cy="16.62" r="2.13"/><path class="cls-1" d="M53.88,22.07v-.07c0-1.5,1.21-2.71,2.71-2.71h1.56c1.5,0,2.71,1.21,2.71,2.71v.07c0,1.5-6.97,1.5-6.97,0Z"/><path class="cls-1" d="M31.79,10.46c-5.44,0-9.85,4.41-9.85,9.85s4.41,9.85,9.85,9.85,9.85-4.41,9.85-9.85-4.41-9.85-9.85-9.85ZM31.79,28.46c-4.5,0-8.15-3.65-8.15-8.15s3.65-8.15,8.15-8.15,8.15,3.65,8.15,8.15-3.65,8.15-8.15,8.15Z"/><circle class="cls-1" cx="31.79" cy="18.09" r="2.13"/><path class="cls-1" d="M28.31,23.54v-.07c0-1.5,1.21-2.71,2.71-2.71h1.56c1.5,0,2.71,1.21,2.71,2.71v.07c0,1.5-6.97,1.5-6.97,0Z"/></svg>