<?xml version="1.0" encoding="UTF-8"?><svg id="Layer_1" xmlns="http://www.w3.org/2000/svg" width="85.86" height="85.86" viewBox="0 0 85.86 85.86"><defs><style>.cls-1{fill:#fff;}</style></defs><path class="cls-1" d="M22.17,29.57c-5.44,0-9.85,4.41-9.85,9.85s4.41,9.85,9.85,9.85,9.85-4.41,9.85-9.85-4.41-9.85-9.85-9.85ZM22.17,47.56c-4.5,0-8.15-3.65-8.15-8.15s3.65-8.15,8.15-8.15,8.15,3.65,8.15,8.15-3.65,8.15-8.15,8.15Z"/><circle class="cls-1" cx="22.17" cy="37.2" r="2.13"/><path class="cls-1" d="M18.69,42.65v-.07c0-1.5,1.21-2.71,2.71-2.71h1.56c1.5,0,2.71,1.21,2.71,2.71v.07c0,1.5-6.97,1.5-6.97,0Z"/><rect class="cls-1" x="33.21" y="36.9" width="1.92" height="5.69" transform="translate(-5.57 73.92) rotate(-90)"/><path class="cls-1" d="M48.44,28.85c-6.46,0-11.69,5.24-11.69,11.69s5.24,11.69,11.69,11.69,11.69-5.24,11.69-11.69-5.24-11.69-11.69-11.69ZM48.44,50.47c-5.48,0-9.92-4.44-9.92-9.92s4.44-9.92,9.92-9.92,9.92,4.44,9.92,9.92-4.44,9.92-9.92,9.92Z"/><rect class="cls-1" x="39.67" y="24.79" width="1.92" height="6.54" transform="translate(-8.74 27.17) rotate(-33.6)"/><rect class="cls-1" x="53.49" y="24.41" width="1.92" height="6.4" transform="translate(17.39 -20.91) rotate(25.74)"/><rect class="cls-1" x="47.47" y="50.43" width="1.92" height="4.42" transform="translate(97.34 104.85) rotate(179.49)"/><path class="cls-1" d="M55.81,55.55h-14.75c-2.39,0-4.32,1.93-4.32,4.32v14.75c0,2.39,1.93,4.32,4.32,4.32h14.75c2.39,0,4.32-1.93,4.32-4.32v-14.75c0-2.39-1.93-4.32-4.32-4.32ZM58.35,74.32c0,1.57-1.27,2.83-2.83,2.83h-14.15c-1.57,0-2.83-1.27-2.83-2.83v-14.15c0-1.57,1.27-2.83,2.83-2.83h14.15c1.57,0,2.83,1.27,2.83,2.83v14.15Z"/><rect class="cls-1" x="45.63" y="53.21" width="5.79" height="3.97" rx="1.04" ry="1.04"/><path class="cls-1" d="M53.59,63.38c-.02-.14-.14-.24-.28-.24-2.56-.05-4.14-1.3-4.66-1.8-.11-.11-.28-.11-.4,0-.53.5-2.1,1.75-4.66,1.8-.14,0-.26.1-.28.24-.23,1.38-1.06,8.4,5.06,10.22.06.02.12.02.18,0,6.12-1.83,5.29-8.84,5.06-10.22ZM51.05,66.49l-.83.83s0,0,0,0l-1.8,1.8h0s-.62.62-.62.62l-1.13-1.13-.82-.82h-.01c-.31-.32-.31-.82,0-1.13.31-.31.81-.31,1.12,0l.83.83h0s.01.01.01.01l2.12-2.12h.01c.31-.32.81-.32,1.12-.01.31.31.31.81,0,1.12Z"/><path class="cls-1" d="M59.68,6.92c-5.44,0-9.85,4.41-9.85,9.85s4.41,9.85,9.85,9.85,9.85-4.41,9.85-9.85-4.41-9.85-9.85-9.85ZM59.68,24.91c-4.5,0-8.15-3.65-8.15-8.15s3.65-8.15,8.15-8.15,8.15,3.65,8.15,8.15-3.65,8.15-8.15,8.15Z"/><circle class="cls-1" cx="59.68" cy="14.55" r="2.13"/><path class="cls-1" d="M56.19,20v-.07c0-1.5,1.21-2.71,2.71-2.71h1.56c1.5,0,2.71,1.21,2.71,2.71v.07c0,1.5-6.97,1.5-6.97,0Z"/><path class="cls-1" d="M34.11,8.39c-5.44,0-9.85,4.41-9.85,9.85s4.41,9.85,9.85,9.85,9.85-4.41,9.85-9.85-4.41-9.85-9.85-9.85ZM34.11,26.39c-4.5,0-8.15-3.65-8.15-8.15s3.65-8.15,8.15-8.15,8.15,3.65,8.15,8.15-3.65,8.15-8.15,8.15Z"/><circle class="cls-1" cx="34.11" cy="16.02" r="2.13"/><path class="cls-1" d="M30.62,21.47v-.07c0-1.5,1.21-2.71,2.71-2.71h1.56c1.5,0,2.71,1.21,2.71,2.71v.07c0,1.5-6.97,1.5-6.97,0Z"/></svg>