<svg width="2893" height="1312" viewBox="0 0 2893 1312" fill="none" xmlns="http://www.w3.org/2000/svg">
<path d="M280.462 470.734L254.694 403.039H112.753L86.5483 470.734H5.31439L137.21 160.647H230.236L361.696 470.734H280.462ZM133.28 349.756H234.167L204.469 272.016C194.86 249.742 188.746 235.33 183.942 214.366H183.068C178.701 235.33 172.586 249.742 162.978 272.016L133.28 349.756Z" fill="#ECF5EC"/>
<path d="M572.127 160.647C644.626 160.647 690.484 199.08 690.484 260.224C690.484 323.988 643.752 363.732 569.506 363.732H481.284V470.734H403.108V160.647H572.127ZM552.91 309.576C587.849 309.576 607.939 292.543 607.939 262.408C607.939 232.709 588.286 215.676 552.91 215.676H481.284V309.576H552.91Z" fill="#ECF5EC"/>
<path d="M901.815 160.647C974.315 160.647 1020.17 199.08 1020.17 260.224C1020.17 323.988 973.441 363.732 899.195 363.732H810.973V470.734H732.796V160.647H901.815ZM882.599 309.576C917.538 309.576 937.628 292.543 937.628 262.408C937.628 232.709 917.975 215.676 882.599 215.676H810.973V309.576H882.599Z" fill="#ECF5EC"/>
<path d="M1062.49 470.734V160.647H1140.66V407.843H1303.13V470.734H1062.49Z" fill="#ECF5EC"/>
<path d="M1428.13 470.734H1349.95V160.647H1428.13V470.734Z" fill="#ECF5EC"/>
<path d="M1577.83 413.52H1756.89V470.734H1499.65V160.647H1753.84V217.423H1577.83V285.118H1746.41V340.148H1577.83V413.52Z" fill="#ECF5EC"/>
<path d="M1816.55 470.734V160.647H1970.72C2057.43 160.647 2118.14 202.51 2134.2 272.993C2136.98 285.222 2099.91 298.313 2099.91 312.196C2079.94 332.328 2076.36 358.136 2068.32 377.569C2057.4 403.928 2069.81 428.283 2074.01 441.455C2046.22 460.27 2010.59 470.734 1969.41 470.734H1816.55ZM1894.72 414.394H1963.73C2023.13 414.394 2056.76 372.03 2056.76 312.633C2056.76 254.546 2022.25 216.987 1963.73 216.987H1894.72V414.394Z" fill="#ECF5EC"/>
<path d="M161.231 899.905C83.4912 899.905 25.8412 871.516 0.0734863 824.348L57.7234 784.168C77.8135 819.107 113.626 840.945 164.725 840.945C206.652 840.945 231.11 829.589 231.11 804.695C231.11 783.295 217.571 774.56 182.632 769.319L118.43 759.711C54.6662 749.666 21.9106 720.404 21.9106 666.685C21.9106 607.724 73.8828 572.348 161.231 572.348C227.616 572.348 279.151 592.875 308.413 635.239L257.314 678.04C238.098 647.031 202.722 629.125 156.864 629.125C118.867 629.125 96.5934 640.917 96.5934 661.88C96.5934 681.971 109.259 690.705 146.382 696.82L208.836 705.991C276.968 716.91 308.413 743.114 308.413 797.707C308.413 861.035 255.131 899.905 161.231 899.905Z" fill="#ECF5EC"/>
<path d="M509.447 899.905C402.446 899.905 333.004 836.14 333.004 736.127C333.004 636.113 402.446 572.348 509.447 572.348C616.449 572.348 685.891 636.113 685.891 736.127C685.891 836.14 616.449 899.905 509.447 899.905ZM509.447 839.634C567.534 839.634 604.22 799.891 604.22 736.127C604.22 672.362 567.534 632.619 509.447 632.619C451.361 632.619 414.674 672.362 414.674 736.127C414.674 799.454 451.361 839.634 509.447 839.634Z" fill="#ECF5EC"/>
<path d="M892.388 899.905C783.202 899.905 718.565 836.14 718.565 737C718.565 638.296 788.007 572.348 894.135 572.348C982.357 572.348 1041.75 615.586 1055.29 686.338L974.932 700.314C967.071 657.95 938.246 633.929 892.388 633.929C834.738 633.929 799.799 673.236 799.799 736.127C799.799 797.707 835.612 837.887 894.135 837.887C938.246 837.887 967.071 815.177 976.242 774.123L1056.17 791.156C1036.51 859.288 978.863 899.905 892.388 899.905Z" fill="#ECF5EC"/>
<path d="M1180.75 891.17H1102.58V581.083H1180.75V891.17Z" fill="#ECF5EC"/>
<path d="M1496.86 891.17L1471.09 823.475H1329.15L1302.94 891.17H1221.71L1353.6 581.083H1446.63L1578.09 891.17H1496.86ZM1349.67 770.192H1450.56L1420.86 692.452C1411.25 670.179 1405.14 655.766 1400.34 634.803H1399.46C1395.09 655.766 1388.98 670.179 1379.37 692.452L1349.67 770.192Z" fill="#ECF5EC"/>
<path d="M1619.5 891.17V581.083H1697.68V828.279H1860.15V891.17H1619.5Z" fill="#ECF5EC"/>
<path d="M35.8863 1311.61V1001.52H147.692L216.261 1191.5C220.628 1205.04 223.685 1216.83 224.995 1227.32H225.869C227.179 1216.83 230.673 1204.6 235.041 1191.07L302.299 1001.52H415.852V1311.61H344.226V1104.15C344.226 1091.05 345.099 1076.64 346.41 1063.54H345.099C343.352 1071.84 338.548 1087.99 334.181 1099.35L258.188 1311.61H189.183L112.753 1099.35C108.385 1087.99 104.455 1073.58 102.708 1063.97H100.961C102.708 1075.33 103.145 1089.74 103.145 1104.15V1311.61H35.8863Z" fill="#ECF5EC"/>
<path d="M565.732 1254.39H744.796V1311.61H487.556V1001.52H741.739V1058.3H565.732V1125.99H734.315V1181.02H565.732V1254.39Z" fill="#ECF5EC"/>
<path d="M804.449 1311.61V1001.52H958.619C1060.38 1001.52 1126.33 1059.17 1126.33 1153.07C1126.33 1248.28 1058.63 1311.61 957.309 1311.61H804.449ZM882.626 1255.27H951.631C1011.03 1255.27 1044.66 1212.9 1044.66 1153.51C1044.66 1095.42 1010.15 1057.86 951.631 1057.86H882.626V1255.27Z" fill="#ECF5EC"/>
<path d="M1251.13 1311.61H1172.95V1001.52H1251.13V1311.61Z" fill="#ECF5EC"/>
<path d="M1567.23 1311.61L1541.46 1243.91H1399.52L1373.32 1311.61H1292.08L1423.98 1001.52H1517L1648.46 1311.61H1567.23ZM1420.05 1190.63H1520.93L1491.24 1112.89C1481.63 1090.61 1475.51 1076.2 1470.71 1055.24H1469.84C1465.47 1076.2 1459.35 1090.61 1449.75 1112.89L1420.05 1190.63Z" fill="#ECF5EC"/>
<path d="M1827.21 1311.61V1001.52H1892.55L1873.63 1035.84L1866.72 1119.13L1905.39 1166.72V1248.72H2067.85V1311.61H1827.21Z" fill="#ECF5EC"/>
<path d="M2367.78 1311.61L2342.01 1243.91H2200.07L2173.87 1311.61H2092.63L2224.53 1001.52H2317.55L2449.01 1311.61H2367.78ZM2220.6 1190.63H2321.49L2291.79 1112.89C2282.18 1090.61 2276.06 1076.2 2271.26 1055.24H2270.39C2266.02 1076.2 2259.9 1090.61 2250.3 1112.89L2220.6 1190.63Z" fill="#ECF5EC"/>
<path d="M2718.84 1149.58C2762.08 1156.13 2784.79 1183.2 2784.79 1223.82C2784.79 1272.3 2750.72 1311.61 2674.73 1311.61H2490.43V1001.52H2671.24C2743.74 1001.52 2776.93 1035.59 2776.93 1080.57C2776.93 1113.33 2757.27 1140.4 2718.84 1149.58ZM2649.84 1055.24H2568.6V1128.17H2649.84C2684.34 1128.17 2695.26 1110.7 2695.26 1090.61C2695.26 1071.4 2683.03 1055.24 2649.84 1055.24ZM2654.2 1257.89C2687.83 1257.89 2703.12 1240.85 2703.12 1217.71C2703.12 1194.12 2687.4 1178.84 2655.08 1178.84H2568.6V1257.89H2654.2Z" fill="#ECF5EC"/>
<path d="M2729.19 155.843C2690.57 159.037 2650.6 165.612 2612.78 153.799C2532.03 124.473 2521.41 30.3673 2397.2 18.2951C2330.1 11.5034 2258.73 46.6885 2227.82 107.597C2213.23 135.211 2205.92 165.723 2194 194.433C2180.25 226.418 2151.57 247.393 2126.59 270.13C2021.04 358.439 2029.28 492.995 2185.57 497.513C2248.95 498.822 2302.51 454.481 2332.99 401.929C2358.7 361.026 2372.64 328.401 2369.45 279.108C2369.32 260.56 2367.14 241.989 2370.07 223.573C2371.56 214.474 2378.25 207.643 2386.11 203.931C2434.03 188.437 2387.92 280.167 2444.59 305.694C2501.95 334.964 2559.75 276.173 2618.33 293.363C2636.52 298.712 2649.56 309.767 2641.72 329.794C2621.09 381.772 2563.55 362.38 2522.07 379.78C2491.31 393.025 2471.36 428.274 2473.15 461.229C2474.39 484.016 2491 500.899 2508.13 514.14C2535.64 536.076 2575.55 553.381 2549.22 594.259C2530.75 628.943 2474.71 635.539 2452.84 600.779C2440.58 581.259 2436.59 558.279 2429.9 536.564C2422.26 505.352 2397.52 479.936 2364.25 478.998C2318.44 474.282 2288.94 518.289 2275.73 556.552C2257.79 603.643 2260.75 633.76 2199.51 630.428C2159.26 628.016 2116.4 637.418 2090.37 670.576C2046.73 722.509 2011.81 821.859 2076.52 870.633C2117.99 899.359 2178.01 899.404 2219.81 871.196C2260.58 842.465 2273.86 790.753 2279.58 743.763C2282.4 722.896 2286.8 697.328 2306.8 686.198C2314.39 681.693 2319.56 682.82 2325.3 689.567C2330.07 695.084 2332.25 702.324 2335.14 708.907C2344.54 733.685 2351.75 759.588 2366.42 781.987C2397 831.823 2467.98 853.769 2519.33 823.514C2576.86 788.902 2609.92 726.919 2652.79 677.129C2662.28 664.58 2675.74 656.896 2691.03 653.669C2707.96 649.216 2725.73 647.018 2741.35 638.697C2769.04 623.958 2786.71 593.315 2791 562.863C2792.57 545.08 2784.79 527.368 2773.5 513.867C2764.81 501.319 2749.24 490.988 2748.31 474.705C2747.37 400.772 2854.25 332.232 2858.85 256.348C2862.34 186.169 2792.16 147.927 2729.19 155.843ZM2833.83 286.77C2821.38 312.095 2804.4 334.69 2787.93 356.633C2786.42 358.609 2784.94 360.608 2783.48 362.581C2765.46 386.648 2748.47 410.288 2737.5 437.261C2729.92 456.185 2729.11 470.05 2731.4 480.885C2733.69 491.768 2739.25 500.442 2745.97 508.783C2748.11 511.478 2750.22 513.93 2752.37 516.454L2752.4 516.453C2753.69 518.011 2755.04 519.568 2756.41 521.196C2759.87 525.35 2763.33 529.724 2766.15 534.461C2772 544.243 2775.08 555.463 2771.28 569.508C2765.9 590.006 2757.49 603.707 2746.72 613.069C2736.07 622.378 2723.69 626.886 2711.53 630.194C2707.22 631.371 2702.95 632.4 2698.74 633.404C2678.66 638.262 2659.93 642.781 2643.9 660.624L2643.76 660.775L2643.59 660.927C2631.95 672.386 2620.01 687.82 2607.23 704.938C2605.22 707.637 2603.18 710.385 2601.11 713.159C2590.29 727.75 2578.88 743.092 2566.9 757.287C2538.66 790.695 2505.04 820.383 2463.46 818.748C2417.41 817.932 2380.78 783.779 2366.34 742.988C2362.9 735.258 2360.02 726.828 2357.25 718.782C2355.89 714.746 2354.53 710.808 2353.16 707.088C2348.87 695.45 2344.05 684.974 2336.66 676.318C2330.54 669.925 2324 667.219 2317.62 666.793C2311.04 666.374 2304.01 668.354 2297.18 672.346C2283.3 680.482 2271.97 695.991 2269.05 710.662L2268.97 711.078L2268.83 711.472C2264.25 725.813 2262.19 740.914 2260.06 756.651L2259.85 758.117C2256.31 782.658 2249.04 806.92 2235.72 828.604C2214.32 866.774 2165.77 880.223 2125.97 872.64C2105.82 868.796 2086.98 859.459 2074.32 844.257C2061.57 828.937 2055.64 808.337 2060.28 783.271C2063.32 743.478 2079.76 704.758 2107.85 675.975L2108.06 675.748L2108.27 675.571L2109.26 674.708C2119.7 665.577 2131.84 654.999 2147.87 651.259C2159.04 648.011 2171.14 647.136 2182.89 646.809C2187.19 646.702 2191.39 646.648 2195.53 646.596C2203.11 646.517 2210.47 646.445 2217.84 645.911C2240.08 644.354 2258.02 638.916 2269.01 619.383L2269.03 619.382C2275.71 607.591 2280.03 594.718 2284.47 581.038L2284.98 579.512C2287.1 573.041 2289.24 566.398 2291.75 559.742C2294.23 553.112 2297.06 546.493 2300.47 540.097C2307.78 525.025 2319.31 510.408 2333.86 501.834C2348.76 493.053 2366.74 490.726 2385.28 500.73C2394.26 505.026 2400.65 512.333 2405.43 520.646C2410.23 528.959 2413.67 538.707 2416.52 548.403C2417.96 553.287 2419.28 558.248 2420.58 563.113L2420.94 564.486C2422.1 568.894 2423.23 573.181 2424.42 577.345C2427.07 586.611 2429.84 594.68 2433.35 600.973L2433.53 601.282L2433.66 601.618C2449.43 637.643 2497.9 652.305 2532.18 632.855L2532.4 632.725L2532.63 632.595C2549.29 624.674 2563.78 608.565 2570.64 590.445C2577.46 572.449 2576.5 553.42 2564.02 538.431L2564 538.432L2564 538.359C2555.7 528.13 2544.9 520.447 2533.09 512.047L2531.72 511.075C2519.72 502.561 2506.81 493.179 2497.24 479.957C2489.48 469.612 2486.66 457.507 2490.52 444.554C2495.28 426.291 2504.93 408.678 2522.11 397.675C2530.35 392.32 2539.49 390.19 2548.03 389.031C2551.97 388.499 2555.97 388.16 2559.73 387.83L2560.65 387.748C2564.77 387.381 2568.59 387.024 2572.29 386.477L2572.63 386.416L2573 386.403C2593.26 385.257 2610.79 381.342 2625.03 373.168C2639.09 365.122 2650.43 352.676 2657.95 333.584L2658 333.486C2664.01 318.849 2660.03 302.313 2648.29 291.527C2622.34 269.584 2584.03 271.892 2550.45 281.81L2550.35 281.813L2550.28 281.864C2545.44 283.158 2540.3 284.754 2534.65 286.514C2530.51 287.806 2526.11 289.181 2521.42 290.566C2510.69 293.701 2499.03 296.676 2487.7 297.863C2476.41 299.049 2464.85 298.543 2454.62 294.073C2444.12 289.516 2435.79 281.064 2430.8 267.895L2430.66 267.56L2430.58 267.222C2428.22 258.602 2427.35 249.929 2426.81 241.657C2426.64 239.085 2426.51 236.586 2426.39 234.11C2426.07 228.48 2425.8 223.092 2425.14 217.645L2425.13 217.329L2425.09 217.014C2424.72 203.363 2416.57 193.785 2405.85 189.601C2394.97 185.374 2381.68 186.803 2371.49 195.511L2371.3 195.663L2371.13 195.791C2354.21 208.511 2352.38 230.68 2353.86 253.994L2353.86 254.14C2354.62 271.741 2354.97 289.503 2354.47 307.198L2354.49 307.757L2354.16 309.446C2352.66 317.646 2351.12 326.14 2349.01 334.507L2349.02 334.604C2346 345.898 2341.04 356.217 2335.68 365.894C2333.15 370.508 2330.47 375.03 2327.86 379.452L2327.47 380.123C2324.72 384.794 2322.04 389.34 2319.55 393.904L2319.48 394.028L2319.44 394.127C2293.49 438.248 2249.95 478.823 2194.44 481.85L2194.36 481.852C2139.92 484.256 2098.72 466.244 2080.73 433.922C2062.63 401.409 2069.93 357.864 2104.8 313.566C2117.59 297.372 2133.09 283.755 2148.01 270.645C2150.48 268.465 2152.96 266.308 2155.38 264.154C2172.62 248.82 2188.56 233.583 2199.82 214.307C2207.83 199.015 2213.67 183.68 2219.1 168.457C2220.05 165.821 2220.97 163.186 2221.9 160.55C2226.33 148.014 2230.77 135.501 2236.1 123.589C2249.24 94.3003 2268.18 68.0122 2307.67 48.9324C2352.71 26.2729 2407.06 25.9146 2452.67 47.0261C2476.99 57.1627 2495.77 73.8453 2512.82 91.3689C2518.25 96.9599 2523.46 102.583 2528.57 108.137C2539.85 120.325 2550.81 132.16 2563.19 142.63L2563.27 142.7L2563.34 142.746C2599.54 174.945 2648.82 180.217 2697.21 174.578L2697.58 174.565C2703.01 174.199 2708.61 173.68 2714.35 173.132C2728.91 171.755 2744.27 170.301 2759.34 171.58C2787.42 173.557 2813.13 188.117 2828.38 209.255C2843.77 230.632 2848.41 258.768 2833.86 286.77L2833.83 286.77Z" fill="#ECF5EC"/>
<path d="M2020.92 902.963C1985.51 908.813 1949.74 922.117 1921.12 944.086C1879.52 978.245 1860.55 1032.5 1853.28 1084.36C1845 1155.29 1901.24 1181.73 1960.31 1196.38C2058.08 1221.1 2121.07 1111.25 2143.86 1031.6C2166.22 962.588 2086.73 894.239 2020.92 902.963ZM2124.92 1031.34C2122.69 1039.05 2119.85 1046.45 2116.64 1054.64C2115.57 1057.35 2114.53 1060.04 2113.53 1062.7L2113.28 1063.29C2103.1 1085.47 2086.93 1117.96 2064.72 1142.47C2042.58 1166.9 2017.86 1179.73 1991.13 1180.7C1987.61 1180.83 1984.08 1180.76 1980.52 1180.47L1979.4 1180.3C1955.81 1174.71 1926.43 1167.77 1904.63 1153.75C1892.43 1145.92 1883.55 1136.42 1878.25 1125.54C1872.19 1113.17 1870.57 1098.66 1873.39 1082.46C1874.82 1057.42 1884.16 1031.43 1892.12 1011.59C1908.36 969.86 1947.6 938.145 1999.77 924.686L2000.21 924.574C2014.23 921.125 2030.14 917.195 2045.98 920.343L2046.22 920.383C2097.11 934.033 2121.68 968.038 2127.8 995.391L2127.91 995.873C2129.71 1006.68 2128.76 1017.95 2124.92 1031.34Z" fill="#ECF5EC"/>
</svg>
