<svg width="2893" height="1697" viewBox="0 0 2893 1697" fill="none" xmlns="http://www.w3.org/2000/svg">
<path d="M280.462 470.842L254.694 403.147H112.753L86.5483 470.842H5.31439L137.21 160.755H230.236L361.696 470.842H280.462ZM133.28 349.864H234.167L204.469 272.124C194.86 249.85 188.746 235.438 183.942 214.474H183.068C178.701 235.438 172.586 249.85 162.978 272.124L133.28 349.864Z" fill="#ECF5EC"/>
<path d="M572.127 160.755C644.626 160.755 690.484 199.188 690.484 260.332C690.484 324.096 643.752 363.84 569.506 363.84H481.284V470.842H403.108V160.755H572.127ZM552.91 309.684C587.849 309.684 607.939 292.651 607.939 262.516C607.939 232.817 588.286 215.784 552.91 215.784H481.284V309.684H552.91Z" fill="#ECF5EC"/>
<path d="M901.815 160.755C974.315 160.755 1020.17 199.188 1020.17 260.332C1020.17 324.096 973.441 363.84 899.195 363.84H810.973V470.842H732.796V160.755H901.815ZM882.599 309.684C917.538 309.684 937.628 292.651 937.628 262.516C937.628 232.817 917.975 215.784 882.599 215.784H810.973V309.684H882.599Z" fill="#ECF5EC"/>
<path d="M1062.49 470.842V160.755H1140.66V407.951H1303.13V470.842H1062.49Z" fill="#ECF5EC"/>
<path d="M1428.13 470.842H1349.95V160.755H1428.13V470.842Z" fill="#ECF5EC"/>
<path d="M1577.83 413.628H1756.89V470.842H1499.65V160.755H1753.84V217.531H1577.83V285.226H1746.41V340.256H1577.83V413.628Z" fill="#ECF5EC"/>
<path d="M1816.55 470.842V160.755H1970.72C2057.43 160.755 2118.14 202.618 2134.2 273.101C2136.98 285.33 2099.91 298.421 2099.91 312.304C2079.94 332.436 2076.36 358.244 2068.32 377.677C2057.4 404.036 2069.81 428.391 2074.01 441.563C2046.22 460.378 2010.59 470.842 1969.41 470.842H1816.55ZM1894.72 414.502H1963.73C2023.13 414.502 2056.76 372.138 2056.76 312.741C2056.76 254.654 2022.25 217.095 1963.73 217.095H1894.72V414.502Z" fill="#ECF5EC"/>
<path d="M161.231 900.013C83.4912 900.013 25.8412 871.624 0.0734863 824.456L57.7234 784.276C77.8135 819.215 113.626 841.053 164.725 841.053C206.652 841.053 231.11 829.697 231.11 804.803C231.11 783.403 217.571 774.668 182.632 769.427L118.43 759.819C54.6662 749.773 21.9106 720.512 21.9106 666.793C21.9106 607.832 73.8828 572.456 161.231 572.456C227.616 572.456 279.151 592.983 308.413 635.347L257.314 678.148C238.098 647.139 202.722 629.233 156.864 629.233C118.867 629.233 96.5934 641.025 96.5934 661.988C96.5934 682.079 109.259 690.813 146.382 696.928L208.836 706.099C276.968 717.018 308.413 743.222 308.413 797.815C308.413 861.143 255.131 900.013 161.231 900.013Z" fill="#ECF5EC"/>
<path d="M509.447 900.013C402.446 900.013 333.004 836.248 333.004 736.234C333.004 636.221 402.446 572.456 509.447 572.456C616.449 572.456 685.891 636.221 685.891 736.234C685.891 836.248 616.449 900.013 509.447 900.013ZM509.447 839.742C567.534 839.742 604.22 799.999 604.22 736.234C604.22 672.47 567.534 632.727 509.447 632.727C451.361 632.727 414.674 672.47 414.674 736.234C414.674 799.562 451.361 839.742 509.447 839.742Z" fill="#ECF5EC"/>
<path d="M892.388 900.013C783.202 900.013 718.565 836.248 718.565 737.108C718.565 638.404 788.007 572.456 894.135 572.456C982.357 572.456 1041.75 615.694 1055.29 686.446L974.932 700.422C967.071 658.058 938.246 634.037 892.388 634.037C834.738 634.037 799.799 673.344 799.799 736.234C799.799 797.815 835.612 837.995 894.135 837.995C938.246 837.995 967.071 815.285 976.242 774.231L1056.17 791.264C1036.51 859.396 978.863 900.013 892.388 900.013Z" fill="#ECF5EC"/>
<path d="M1180.75 891.278H1102.58V581.191H1180.75V891.278Z" fill="#ECF5EC"/>
<path d="M1496.86 891.278L1471.09 823.583H1329.15L1302.94 891.278H1221.71L1353.6 581.191H1446.63L1578.09 891.278H1496.86ZM1349.67 770.3H1450.56L1420.86 692.56C1411.25 670.286 1405.14 655.874 1400.34 634.91H1399.46C1395.09 655.874 1388.98 670.286 1379.37 692.56L1349.67 770.3Z" fill="#ECF5EC"/>
<path d="M1619.5 891.278V581.191H1697.68V828.387H1860.15V891.278H1619.5Z" fill="#ECF5EC"/>
<path d="M35.8863 1311.71V1001.63H147.692L216.261 1191.61C220.628 1205.15 223.685 1216.94 224.995 1227.42H225.869C227.179 1216.94 230.673 1204.71 235.041 1191.17L302.299 1001.63H415.852V1311.71H344.226V1104.26C344.226 1091.16 345.099 1076.75 346.41 1063.64H345.099C343.352 1071.94 338.548 1088.1 334.181 1099.46L258.188 1311.71H189.183L112.753 1099.46C108.385 1088.1 104.455 1073.69 102.708 1064.08H100.961C102.708 1075.44 103.145 1089.85 103.145 1104.26V1311.71H35.8863Z" fill="#ECF5EC"/>
<path d="M565.732 1254.5H744.796V1311.71H487.556V1001.63H741.739V1058.4H565.732V1126.1H734.315V1181.13H565.732V1254.5Z" fill="#ECF5EC"/>
<path d="M804.449 1311.71V1001.63H958.619C1060.38 1001.63 1126.33 1059.28 1126.33 1153.18C1126.33 1248.39 1058.63 1311.71 957.309 1311.71H804.449ZM882.626 1255.37H951.631C1011.03 1255.37 1044.66 1213.01 1044.66 1153.61C1044.66 1095.53 1010.15 1057.97 951.631 1057.97H882.626V1255.37Z" fill="#ECF5EC"/>
<path d="M1251.13 1311.71H1172.95V1001.63H1251.13V1311.71Z" fill="#ECF5EC"/>
<path d="M1567.23 1311.71L1541.46 1244.02H1399.52L1373.32 1311.71H1292.08L1423.98 1001.63H1517L1648.46 1311.71H1567.23ZM1420.05 1190.74H1520.93L1491.24 1113C1481.63 1090.72 1475.51 1076.31 1470.71 1055.35H1469.84C1465.47 1076.31 1459.35 1090.72 1449.75 1113L1420.05 1190.74Z" fill="#ECF5EC"/>
<path d="M1827.21 1311.71V1001.63H1892.55L1873.63 1035.95L1866.72 1119.23L1905.39 1166.82V1248.82H2067.85V1311.71H1827.21Z" fill="#ECF5EC"/>
<path d="M2367.78 1311.71L2342.01 1244.02H2200.07L2173.87 1311.71H2092.63L2224.53 1001.63H2317.55L2449.01 1311.71H2367.78ZM2220.6 1190.74H2321.49L2291.79 1113C2282.18 1090.72 2276.06 1076.31 2271.26 1055.35H2270.39C2266.02 1076.31 2259.9 1090.72 2250.3 1113L2220.6 1190.74Z" fill="#ECF5EC"/>
<path d="M2718.84 1149.68C2762.08 1156.23 2784.79 1183.31 2784.79 1223.93C2784.79 1272.41 2750.72 1311.71 2674.73 1311.71H2490.43V1001.63H2671.24C2743.74 1001.63 2776.93 1035.69 2776.93 1080.68C2776.93 1113.43 2757.27 1140.51 2718.84 1149.68ZM2649.84 1055.35H2568.6V1128.28H2649.84C2684.34 1128.28 2695.26 1110.81 2695.26 1090.72C2695.26 1071.51 2683.03 1055.35 2649.84 1055.35ZM2654.2 1257.99C2687.83 1257.99 2703.12 1240.96 2703.12 1217.81C2703.12 1194.23 2687.4 1178.94 2655.08 1178.94H2568.6V1257.99H2654.2Z" fill="#ECF5EC"/>
<path d="M1913.97 1696.74C1912.14 1696.74 1909.09 1696.38 1905.92 1696.01V1681.61C1909.58 1682.1 1911.05 1682.22 1912.75 1682.22C1919.22 1682.22 1922.76 1679.91 1924.46 1674.29L1925.32 1671.73L1902.02 1611.1H1923.24L1933.98 1648.19C1934.71 1650.75 1935.08 1652.7 1935.32 1655.26H1935.69C1935.81 1653.19 1936.3 1651.24 1937.15 1648.19L1947.03 1611.1H1966.67L1944.84 1674.78C1939.47 1690.64 1930.2 1696.74 1913.97 1696.74Z" fill="#ECF5EC"/>
<path d="M1851.39 1624.16V1611.1H1862V1596.47L1881.52 1588.9V1611.1H1896.04V1624.16H1881.52V1647.95C1881.52 1654.05 1884.57 1657.22 1890.43 1657.22C1892.75 1657.22 1894.21 1656.97 1896.04 1656.61V1672.1C1891.53 1672.95 1888.48 1673.32 1884.94 1673.32C1868.71 1673.32 1862 1665.88 1862 1652.58V1624.16H1851.39Z" fill="#ECF5EC"/>
<path d="M1822.73 1602.32V1584.51H1843.1V1602.32H1822.73ZM1822.98 1672.1V1611.1H1842.62V1672.1H1822.98Z" fill="#ECF5EC"/>
<path d="M1784.94 1673.56C1771.52 1673.56 1760.54 1668.56 1754.68 1658.93L1766.03 1650.39C1770.3 1656.97 1776.88 1660.27 1785.3 1660.27C1791.65 1660.27 1794.82 1658.32 1794.82 1654.9C1794.82 1651.24 1792.87 1649.9 1786.16 1648.92L1777.37 1647.7C1764.2 1645.75 1757.98 1639.28 1757.98 1628.92C1757.98 1617.08 1767.98 1609.64 1784.81 1609.64C1797.14 1609.64 1807.5 1614.15 1812.51 1621.72L1802.38 1630.87C1797.87 1625.74 1791.77 1622.69 1784.2 1622.69C1778.35 1622.69 1775.66 1624.28 1775.66 1627.7C1775.66 1630.62 1777.49 1632.21 1782.86 1632.94L1793.72 1634.65C1806.77 1636.48 1811.9 1642.94 1811.9 1653.44C1811.9 1665.88 1802.01 1673.56 1784.94 1673.56Z" fill="#ECF5EC"/>
<path d="M1729.77 1626.84C1732.94 1615.86 1739.65 1609.64 1750.14 1609.64H1751.36V1628.31C1750.14 1628.18 1749.17 1628.18 1747.7 1628.18C1742.46 1628.18 1738.56 1629.53 1735.87 1631.84C1731.97 1635.5 1730.99 1640.99 1730.99 1647.21V1672.1H1711.35V1611.1H1729.77V1626.84Z" fill="#ECF5EC"/>
<path d="M1699.09 1640.14V1645.99H1656.76C1656.88 1654.29 1662.61 1659.54 1670.79 1659.54C1676.76 1659.54 1681.28 1656.61 1684.08 1651L1698.48 1657.58C1693.6 1667.59 1683.23 1673.56 1670.54 1673.56C1650.41 1673.56 1638.21 1661.97 1638.21 1642.21C1638.21 1622.21 1650.17 1609.64 1669.2 1609.64C1688.35 1609.64 1699.09 1620.74 1699.09 1640.14ZM1680.18 1635.01V1634.53C1680.18 1625.87 1676.15 1621.23 1668.83 1621.23C1661.27 1621.23 1657 1626.35 1656.76 1635.01H1680.18Z" fill="#ECF5EC"/>
<path d="M1593.61 1672.1L1572.38 1611.1H1592.51L1602.39 1647.09C1603.37 1650.51 1603.73 1652.95 1604.22 1655.75H1604.46C1604.95 1652.95 1605.32 1650.51 1606.29 1647.09L1616.17 1611.1H1636.3L1614.95 1672.1H1593.61Z" fill="#ECF5EC"/>
<path d="M1543.84 1602.32V1584.51H1564.22V1602.32H1543.84ZM1544.09 1672.1V1611.1H1563.73V1672.1H1544.09Z" fill="#ECF5EC"/>
<path d="M1469.75 1672.1V1611.1H1488.54V1622.82C1492.81 1613.91 1499.51 1609.52 1508.79 1609.52C1521.96 1609.52 1528.67 1617.94 1528.67 1634.28V1672.1H1509.15V1636.97C1509.15 1628.55 1506.22 1624.52 1500 1624.52C1493.17 1624.52 1489.39 1629.77 1489.39 1639.16V1672.1H1469.75Z" fill="#ECF5EC"/>
<path d="M1380.62 1585.49H1401.24V1640.99C1401.24 1651.12 1407.22 1657.46 1417.34 1657.46C1427.59 1657.46 1433.45 1651.12 1433.45 1640.99V1585.49H1454.06V1641.85C1454.06 1661.61 1440.4 1674.17 1417.34 1674.17C1394.29 1674.17 1380.62 1661.61 1380.62 1641.85V1585.49Z" fill="#ECF5EC"/>
<path d="M1296.17 1673.56C1281.53 1673.56 1271.77 1660.88 1271.77 1641.85C1271.77 1622.45 1282.02 1609.64 1297.27 1609.64C1305.32 1609.64 1311.42 1612.93 1314.47 1619.28V1583.66H1333.99V1672.1H1315.44V1661.61C1312.39 1668.93 1305.07 1673.56 1296.17 1673.56ZM1303.85 1660.02C1310.56 1660.02 1314.71 1654.05 1314.71 1644.53V1639.28C1314.71 1628.92 1310.56 1623.18 1303.61 1623.18C1296.17 1623.18 1291.9 1629.77 1291.9 1641.48C1291.9 1652.95 1296.41 1660.02 1303.85 1660.02Z" fill="#ECF5EC"/>
<path d="M1245.26 1626.84C1248.43 1615.86 1255.14 1609.64 1265.63 1609.64H1266.85V1628.31C1265.63 1628.18 1264.66 1628.18 1263.19 1628.18C1257.95 1628.18 1254.04 1629.53 1251.36 1631.84C1247.46 1635.5 1246.48 1640.99 1246.48 1647.21V1672.1H1226.84V1611.1H1245.26V1626.84Z" fill="#ECF5EC"/>
<path d="M1172.89 1673.56C1160.32 1673.56 1151.91 1666.37 1151.91 1655.51C1151.91 1649.78 1153.98 1645.26 1158.13 1642.33C1162.15 1639.53 1168.01 1637.58 1177.28 1636.36L1192.04 1634.28V1632.21C1192.04 1625.26 1189.11 1622.21 1183.01 1622.21C1177.04 1622.21 1173.62 1625.38 1173.26 1631.23H1153.86C1154.83 1617.69 1165.81 1609.64 1183.14 1609.64C1202.78 1609.64 1211.56 1617.33 1211.56 1634.89V1655.14C1211.56 1662.34 1212.17 1668.32 1213.27 1672.1H1194.24C1193.63 1669.17 1193.38 1665.88 1193.26 1662.46C1190.21 1669.29 1182.4 1673.56 1172.89 1673.56ZM1180.21 1661.12C1187.65 1661.12 1192.65 1656.12 1192.65 1648.8V1643.92L1182.16 1645.63C1174.96 1646.97 1171.67 1649.53 1171.67 1654.05C1171.67 1658.32 1175.09 1661.12 1180.21 1661.12Z" fill="#ECF5EC"/>
<path d="M1107.07 1672.1L1085.85 1611.1H1105.97L1115.85 1647.09C1116.83 1650.51 1117.2 1652.95 1117.68 1655.75H1117.93C1118.42 1652.95 1118.78 1650.51 1119.76 1647.09L1129.64 1611.1H1149.77L1128.42 1672.1H1107.07Z" fill="#ECF5EC"/>
<path d="M1058.7 1626.84C1061.87 1615.86 1068.58 1609.64 1079.07 1609.64H1080.29V1628.31C1079.07 1628.18 1078.09 1628.18 1076.63 1628.18C1071.39 1628.18 1067.48 1629.53 1064.8 1631.84C1060.89 1635.5 1059.92 1640.99 1059.92 1647.21V1672.1H1040.28V1611.1H1058.7V1626.84Z" fill="#ECF5EC"/>
<path d="M986.33 1673.56C973.765 1673.56 965.347 1666.37 965.347 1655.51C965.347 1649.78 967.421 1645.26 971.569 1642.33C975.594 1639.53 981.45 1637.58 990.721 1636.36L1005.48 1634.28V1632.21C1005.48 1625.26 1002.55 1622.21 996.455 1622.21C990.477 1622.21 987.062 1625.38 986.696 1631.23H967.299C968.275 1617.69 979.254 1609.64 996.577 1609.64C1016.22 1609.64 1025 1617.33 1025 1634.89V1655.14C1025 1662.34 1025.61 1668.32 1026.71 1672.1H1007.68C1007.07 1669.17 1006.82 1665.88 1006.7 1662.46C1003.65 1669.29 995.845 1673.56 986.33 1673.56ZM993.649 1661.12C1001.09 1661.12 1006.09 1656.12 1006.09 1648.8V1643.92L995.601 1645.63C988.404 1646.97 985.11 1649.53 985.11 1654.05C985.11 1658.32 988.525 1661.12 993.649 1661.12Z" fill="#ECF5EC"/>
<path d="M953.173 1585.49V1672.1H932.556V1636.11H899.253V1672.1H878.636V1585.49H899.253V1620.25H932.556V1585.49H953.173Z" fill="#ECF5EC"/>
<path d="M798.293 1619.64V1611.1H809.638V1595.12L820.007 1590.73V1611.1H835.256V1619.64H820.007V1653.43C820.007 1660.39 822.691 1663.44 828.912 1663.44C831.596 1663.44 833.182 1663.07 835.256 1662.58V1672.1C832.572 1672.83 830.132 1673.2 826.229 1673.2C813.053 1673.2 809.638 1665.15 809.638 1653.8V1619.64H798.293Z" fill="#ECF5EC"/>
<path d="M759.191 1673.56C746.748 1673.56 738.574 1666.49 738.574 1655.63C738.574 1649.53 741.624 1644.29 747.114 1641.24C751.749 1638.92 757.605 1637.45 767.608 1636.23L778.953 1634.89V1633.92C778.953 1622.69 774.928 1618.18 765.534 1618.18C757.239 1618.18 752.115 1622.57 751.627 1630.26H740.526C741.38 1617.81 751.139 1609.64 765.412 1609.64C782.125 1609.64 789.444 1617.2 789.444 1635.01V1651.48C789.444 1660.88 790.054 1667.34 791.518 1672.1H780.661C780.173 1668.93 779.807 1664.9 779.685 1661C776.879 1668.81 769.194 1673.56 759.191 1673.56ZM761.508 1665.02C772.122 1665.02 779.075 1657.34 779.075 1645.51V1642.46L762.484 1644.9C753.457 1646.24 749.553 1649.41 749.553 1655.39C749.553 1661.36 754.067 1665.02 761.508 1665.02Z" fill="#ECF5EC"/>
<path d="M649.744 1696.74C647.914 1696.74 644.865 1696.38 641.693 1696.01V1681.61C645.353 1682.1 646.816 1682.22 648.524 1682.22C654.99 1682.22 658.528 1679.91 660.235 1674.29L661.089 1671.73L637.789 1611.1H659.016L669.751 1648.19C670.483 1650.75 670.849 1652.7 671.093 1655.26H671.459C671.581 1653.19 672.069 1651.24 672.923 1648.19L682.804 1611.1H702.444L680.608 1674.78C675.24 1690.64 665.969 1696.74 649.744 1696.74Z" fill="#ECF5EC"/>
<path d="M587.161 1624.16V1611.1H597.774V1596.47L617.293 1588.9V1611.1H631.81V1624.16H617.293V1647.95C617.293 1654.05 620.343 1657.22 626.198 1657.22C628.516 1657.22 629.98 1656.97 631.81 1656.61V1672.1C627.296 1672.95 624.246 1673.32 620.709 1673.32C604.484 1673.32 597.774 1665.88 597.774 1652.58V1624.16H587.161Z" fill="#ECF5EC"/>
<path d="M583.533 1640.14V1645.99H541.202C541.324 1654.29 547.057 1659.54 555.231 1659.54C561.208 1659.54 565.722 1656.61 568.528 1651L582.923 1657.58C578.043 1667.59 567.674 1673.56 554.987 1673.56C534.858 1673.56 522.659 1661.97 522.659 1642.21C522.659 1622.21 534.614 1609.64 553.645 1609.64C572.798 1609.64 583.533 1620.74 583.533 1640.14ZM564.624 1635.01V1634.53C564.624 1625.87 560.598 1621.23 553.279 1621.23C545.716 1621.23 541.446 1626.35 541.202 1635.01H564.624Z" fill="#ECF5EC"/>
<path d="M491.075 1602.32V1584.51H511.447V1602.32H491.075ZM491.319 1672.1V1611.1H510.959V1672.1H491.319Z" fill="#ECF5EC"/>
<path d="M450.859 1673.56C431.585 1673.56 418.776 1661 418.776 1641.6C418.776 1621.72 431.097 1609.64 451.103 1609.64C467.084 1609.64 477.697 1617.45 480.015 1631.23L461.595 1635.01C460.497 1627.82 456.593 1624.04 450.615 1624.04C443.174 1624.04 438.66 1630.38 438.66 1640.99C438.66 1652.46 443.052 1659.05 450.737 1659.05C456.837 1659.05 460.619 1655.02 461.717 1647.7L480.015 1651.73C477.819 1665.15 466.474 1673.56 450.859 1673.56Z" fill="#ECF5EC"/>
<path d="M379.253 1673.56C361.32 1673.56 347.657 1662.46 347.657 1641.48C347.657 1620.5 361.32 1609.64 379.253 1609.64C397.308 1609.64 410.971 1620.5 410.971 1641.48C410.971 1662.46 397.308 1673.56 379.253 1673.56ZM379.253 1660.02C386.938 1660.02 391.452 1653.92 391.452 1641.48C391.452 1628.92 386.938 1623.18 379.253 1623.18C371.689 1623.18 367.176 1628.92 367.176 1641.48C367.176 1653.92 371.689 1660.02 379.253 1660.02Z" fill="#ECF5EC"/>
<path d="M305.213 1674.17C286.549 1674.17 273.13 1666.24 267.152 1654.05L282.401 1643.31C286.915 1652.22 294.478 1658.19 305.945 1658.19C314.241 1658.19 320.828 1655.14 320.828 1648.31C320.828 1641.85 317.047 1639.41 308.263 1637.58L296.674 1635.14C281.547 1631.84 272.764 1623.67 272.764 1609.15C272.764 1593.29 285.695 1583.41 306.555 1583.41C321.926 1583.41 334.857 1589.02 340.957 1600.61L327.538 1611.96C323.146 1603.54 315.095 1598.66 305.213 1598.66C297.04 1598.66 291.794 1602.08 291.794 1607.57C291.794 1613.18 295.21 1615.98 304.36 1618.06L316.925 1620.74C332.296 1624.16 340.591 1631.48 340.591 1646.36C340.591 1662.83 327.904 1674.17 305.213 1674.17Z" fill="#ECF5EC"/>
<path d="M196.148 1673.56C181.387 1673.56 171.384 1660.75 171.384 1641.6C171.384 1622.82 182.119 1609.64 197.368 1609.64C205.419 1609.64 211.397 1612.93 215.3 1620.13V1583.66H225.67V1672.1H215.91V1660.75C212.251 1668.93 205.663 1673.56 196.148 1673.56ZM198.954 1664.41C209.079 1664.41 215.544 1656.12 215.544 1643.07V1640.26C215.544 1626.96 209.201 1618.79 198.954 1618.79C188.584 1618.79 182.363 1627.21 182.363 1641.6C182.363 1655.88 188.584 1664.41 198.954 1664.41Z" fill="#ECF5EC"/>
<path d="M106.229 1672.1V1611.1H115.988V1623.18C120.014 1613.91 126.724 1609.4 136.361 1609.4C149.78 1609.4 156.734 1617.81 156.734 1634.16V1672.1H146.364V1634.77C146.364 1624.04 141.851 1618.55 132.945 1618.55C122.82 1618.55 116.598 1626.72 116.598 1640.26V1672.1H106.229Z" fill="#ECF5EC"/>
<path d="M55.5961 1673.56C43.153 1673.56 34.9796 1666.49 34.9796 1655.63C34.9796 1649.53 38.0293 1644.29 43.5189 1641.24C48.1546 1638.92 54.0102 1637.45 64.0135 1636.23L75.3587 1634.89V1633.92C75.3587 1622.69 71.3329 1618.18 61.9396 1618.18C53.6442 1618.18 48.5206 1622.57 48.0326 1630.26H36.9314C37.7854 1617.81 47.5447 1609.64 61.8176 1609.64C78.5304 1609.64 85.8499 1617.2 85.8499 1635.01V1651.48C85.8499 1660.88 86.4599 1667.34 87.9238 1672.1H77.0665C76.5786 1668.93 76.2126 1664.9 76.0906 1661C73.2848 1668.81 65.5994 1673.56 55.5961 1673.56ZM57.9139 1665.02C68.5271 1665.02 75.4806 1657.34 75.4806 1645.51V1642.46L58.8898 1644.9C49.8625 1646.24 45.9588 1649.41 45.9588 1655.39C45.9588 1661.36 50.4724 1665.02 57.9139 1665.02Z" fill="#ECF5EC"/>
<path d="M1962.18 1492.41V1479.36H1972.8V1464.72L1992.32 1457.16V1479.36H2006.83V1492.41H1992.32V1516.2C1992.32 1522.3 1995.37 1525.47 2001.22 1525.47C2003.54 1525.47 2005 1525.23 2006.83 1524.86V1540.36C2002.32 1541.21 1999.27 1541.58 1995.73 1541.58C1979.51 1541.58 1972.8 1534.13 1972.8 1520.84V1492.41H1962.18Z" fill="#ECF5EC"/>
<path d="M1958.56 1508.39V1514.25H1916.23C1916.35 1522.55 1922.08 1527.79 1930.26 1527.79C1936.23 1527.79 1940.75 1524.86 1943.55 1519.25L1957.95 1525.84C1953.07 1535.84 1942.7 1541.82 1930.01 1541.82C1909.88 1541.82 1897.68 1530.23 1897.68 1510.47C1897.68 1490.46 1909.64 1477.9 1928.67 1477.9C1947.82 1477.9 1958.56 1489 1958.56 1508.39ZM1939.65 1503.27V1502.78C1939.65 1494.12 1935.62 1489.49 1928.3 1489.49C1920.74 1489.49 1916.47 1494.61 1916.23 1503.27H1939.65Z" fill="#ECF5EC"/>
<path d="M1827.98 1540.36V1479.36H1846.77V1491.07C1851.04 1482.17 1857.75 1477.77 1867.02 1477.77C1880.19 1477.77 1886.9 1486.19 1886.9 1502.54V1540.36H1867.38V1505.22C1867.38 1496.81 1864.46 1492.78 1858.23 1492.78C1851.4 1492.78 1847.62 1498.02 1847.62 1507.42V1540.36H1827.98Z" fill="#ECF5EC"/>
<path d="M1796.13 1495.1C1799.3 1484.12 1806.01 1477.9 1816.5 1477.9H1817.72V1496.56C1816.5 1496.44 1815.52 1496.44 1814.06 1496.44C1808.81 1496.44 1804.91 1497.78 1802.23 1500.1C1798.32 1503.76 1797.35 1509.25 1797.35 1515.47V1540.36H1777.71V1479.36H1796.13V1495.1Z" fill="#ECF5EC"/>
<path d="M1765.44 1508.39V1514.25H1723.11C1723.23 1522.55 1728.97 1527.79 1737.14 1527.79C1743.12 1527.79 1747.63 1524.86 1750.44 1519.25L1764.83 1525.84C1759.95 1535.84 1749.58 1541.82 1736.9 1541.82C1716.77 1541.82 1704.57 1530.23 1704.57 1510.47C1704.57 1490.46 1716.52 1477.9 1735.56 1477.9C1754.71 1477.9 1765.44 1489 1765.44 1508.39ZM1746.53 1503.27V1502.78C1746.53 1494.12 1742.51 1489.49 1735.19 1489.49C1727.63 1489.49 1723.36 1494.61 1723.11 1503.27H1746.53Z" fill="#ECF5EC"/>
<path d="M1654.46 1492.41V1479.36H1665.08V1464.72L1684.6 1457.16V1479.36H1699.11V1492.41H1684.6V1516.2C1684.6 1522.3 1687.65 1525.47 1693.5 1525.47C1695.82 1525.47 1697.28 1525.23 1699.11 1524.86V1540.36C1694.6 1541.21 1691.55 1541.58 1688.01 1541.58C1671.79 1541.58 1665.08 1534.13 1665.08 1520.84V1492.41H1654.46Z" fill="#ECF5EC"/>
<path d="M1588.88 1540.36V1479.36H1607.67V1491.07C1611.94 1482.17 1618.65 1477.77 1627.92 1477.77C1641.1 1477.77 1647.8 1486.19 1647.8 1502.54V1540.36H1628.29V1505.22C1628.29 1496.81 1625.36 1492.78 1619.14 1492.78C1612.31 1492.78 1608.52 1498.02 1608.52 1507.42V1540.36H1588.88Z" fill="#ECF5EC"/>
<path d="M1571.64 1540.35H1551.02V1453.74H1571.64V1540.35Z" fill="#ECF5EC"/>
<path d="M1488.17 1495.1C1491.34 1484.12 1498.05 1477.9 1508.54 1477.9H1509.76V1496.56C1508.54 1496.44 1507.57 1496.44 1506.1 1496.44C1500.86 1496.44 1496.95 1497.78 1494.27 1500.1C1490.37 1503.76 1489.39 1509.25 1489.39 1515.47V1540.36H1469.75V1479.36H1488.17V1495.1Z" fill="#ECF5EC"/>
<path d="M1426.3 1541.82C1408.37 1541.82 1394.71 1530.72 1394.71 1509.74C1394.71 1488.75 1408.37 1477.9 1426.3 1477.9C1444.36 1477.9 1458.02 1488.75 1458.02 1509.74C1458.02 1530.72 1444.36 1541.82 1426.3 1541.82ZM1426.3 1528.28C1433.99 1528.28 1438.5 1522.18 1438.5 1509.74C1438.5 1497.17 1433.99 1491.44 1426.3 1491.44C1418.74 1491.44 1414.23 1497.17 1414.23 1509.74C1414.23 1522.18 1418.74 1528.28 1426.3 1528.28Z" fill="#ECF5EC"/>
<path d="M1390.81 1479.36V1492.41H1376.65V1540.36H1357.14V1492.41H1347.38V1479.36H1357.14V1473.63C1357.14 1459.11 1365.55 1451.18 1381.05 1451.18C1384.46 1451.18 1387.76 1451.55 1390.81 1452.28V1466.31C1388.73 1465.94 1386.66 1465.7 1384.83 1465.7C1379.46 1465.7 1376.65 1468.62 1376.65 1474.11V1479.36H1390.81Z" fill="#ECF5EC"/>
<path d="M1291.48 1495.1C1294.66 1484.12 1301.36 1477.9 1311.86 1477.9H1313.08V1496.56C1311.86 1496.44 1310.88 1496.44 1309.42 1496.44C1304.17 1496.44 1300.27 1497.78 1297.58 1500.1C1293.68 1503.76 1292.7 1509.25 1292.7 1515.47V1540.36H1273.06V1479.36H1291.48V1495.1Z" fill="#ECF5EC"/>
<path d="M1260.8 1508.39V1514.25H1218.47C1218.59 1522.55 1224.32 1527.79 1232.5 1527.79C1238.47 1527.79 1242.99 1524.86 1245.79 1519.25L1260.19 1525.84C1255.31 1535.84 1244.94 1541.82 1232.25 1541.82C1212.12 1541.82 1199.93 1530.23 1199.93 1510.47C1199.93 1490.46 1211.88 1477.9 1230.91 1477.9C1250.06 1477.9 1260.8 1489 1260.8 1508.39ZM1241.89 1503.27V1502.78C1241.89 1494.12 1237.86 1489.49 1230.55 1489.49C1222.98 1489.49 1218.71 1494.61 1218.47 1503.27H1241.89Z" fill="#ECF5EC"/>
<path d="M1149.82 1492.41V1479.36H1160.43V1464.72L1179.95 1457.16V1479.36H1194.47V1492.41H1179.95V1516.2C1179.95 1522.3 1183 1525.47 1188.86 1525.47C1191.18 1525.47 1192.64 1525.23 1194.47 1524.86V1540.36C1189.96 1541.21 1186.91 1541.58 1183.37 1541.58C1167.14 1541.58 1160.43 1534.13 1160.43 1520.84V1492.41H1149.82Z" fill="#ECF5EC"/>
<path d="M1084.24 1540.35V1479.36H1103.03V1491.07C1107.29 1482.16 1114 1477.77 1123.28 1477.77C1136.45 1477.77 1143.16 1486.19 1143.16 1502.54V1540.35H1123.64V1505.22C1123.64 1496.8 1120.71 1492.78 1114.49 1492.78C1107.66 1492.78 1103.88 1498.02 1103.88 1507.42V1540.35H1084.24Z" fill="#ECF5EC"/>
<path d="M1071.97 1508.39V1514.25H1029.64C1029.77 1522.55 1035.5 1527.79 1043.67 1527.79C1049.65 1527.79 1054.16 1524.86 1056.97 1519.25L1071.36 1525.84C1066.49 1535.84 1056.12 1541.82 1043.43 1541.82C1023.3 1541.82 1011.1 1530.23 1011.1 1510.47C1011.1 1490.46 1023.06 1477.9 1042.09 1477.9C1061.24 1477.9 1071.97 1489 1071.97 1508.39ZM1053.07 1503.27V1502.78C1053.07 1494.12 1049.04 1489.49 1041.72 1489.49C1034.16 1489.49 1029.89 1494.61 1029.64 1503.27H1053.07Z" fill="#ECF5EC"/>
<path d="M965.153 1542.43C937.705 1542.43 922.944 1524.49 922.944 1497.17C922.944 1469.84 939.047 1451.67 965.397 1451.67C987.477 1451.67 1001.38 1463.87 1003.7 1482.77L982.841 1486.43C981.621 1474.97 975.278 1468.26 964.909 1468.26C951.734 1468.26 944.048 1479.36 944.048 1497.05C944.048 1514.25 951.856 1525.71 965.519 1525.71C975.156 1525.71 981.622 1519.13 983.329 1507.9L1004.19 1512.42C1000.04 1530.72 986.623 1542.43 965.153 1542.43Z" fill="#ECF5EC"/>
<path d="M823.101 1540.35V1479.36H841.888V1491.07C846.158 1482.16 852.867 1477.77 862.138 1477.77C875.314 1477.77 882.023 1486.19 882.023 1502.54V1540.35H862.504V1505.22C862.504 1496.8 859.577 1492.78 853.355 1492.78C846.524 1492.78 842.742 1498.02 842.742 1507.42V1540.35H823.101Z" fill="#ECF5EC"/>
<path d="M786.88 1470.58V1452.76H807.252V1470.58H786.88ZM787.124 1540.35V1479.36H806.764V1540.35H787.124Z" fill="#ECF5EC"/>
<path d="M774.858 1508.39V1514.25H732.527C732.649 1522.55 738.383 1527.79 746.556 1527.79C752.534 1527.79 757.047 1524.86 759.853 1519.25L774.248 1525.84C769.369 1535.84 758.999 1541.82 746.312 1541.82C726.184 1541.82 713.985 1530.23 713.985 1510.47C713.985 1490.46 725.94 1477.9 744.97 1477.9C764.123 1477.9 774.858 1489 774.858 1508.39ZM755.95 1503.27V1502.78C755.95 1494.12 751.924 1489.49 744.604 1489.49C737.041 1489.49 732.771 1494.61 732.527 1503.27H755.95Z" fill="#ECF5EC"/>
<path d="M701.703 1451.91V1540.36H682.063V1451.91H701.703Z" fill="#ECF5EC"/>
<path d="M648.287 1540.35L625.718 1503.39L615.837 1514.86V1540.35H595.221V1453.74H615.837V1490.95L646.457 1453.74H670.001L639.747 1488.87L671.709 1540.35H648.287Z" fill="#ECF5EC"/>
<path d="M489.888 1540.35V1479.36H508.675V1491.07C512.944 1482.16 519.654 1477.77 528.925 1477.77C542.1 1477.77 548.81 1486.19 548.81 1502.54V1540.35H529.291V1505.22C529.291 1496.8 526.363 1492.78 520.142 1492.78C513.31 1492.78 509.528 1498.02 509.528 1507.42V1540.35H489.888Z" fill="#ECF5EC"/>
<path d="M435.94 1541.82C423.375 1541.82 414.958 1534.62 414.958 1523.77C414.958 1518.03 417.031 1513.52 421.179 1510.59C425.205 1507.78 431.06 1505.83 440.332 1504.61L455.093 1502.54V1500.46C455.093 1493.51 452.165 1490.46 446.065 1490.46C440.088 1490.46 436.672 1493.63 436.306 1499.49H416.909C417.885 1485.95 428.865 1477.9 446.187 1477.9C465.828 1477.9 474.611 1485.58 474.611 1503.15V1523.4C474.611 1530.6 475.221 1536.57 476.319 1540.36H457.289C456.679 1537.43 456.435 1534.13 456.313 1530.72C453.263 1537.55 445.455 1541.82 435.94 1541.82ZM443.26 1529.38C450.701 1529.38 455.703 1524.38 455.703 1517.06V1512.18L445.211 1513.88C438.014 1515.23 434.72 1517.79 434.72 1522.3C434.72 1526.57 438.136 1529.38 443.26 1529.38Z" fill="#ECF5EC"/>
<path d="M311.428 1479.36H330.215V1490.34C334.118 1481.92 339.974 1477.77 349.001 1477.77C357.663 1477.77 363.274 1481.8 366.324 1490.46C370.716 1481.92 377.059 1477.77 385.843 1477.77C397.676 1477.77 404.629 1486.19 404.629 1500.46V1540.35H385.111V1504.61C385.111 1496.44 382.549 1492.78 376.937 1492.78C371.082 1492.78 367.788 1497.17 367.788 1505.34V1540.35H348.269V1504.49C348.269 1496.56 345.586 1492.78 340.218 1492.78C334.362 1492.78 331.069 1497.29 331.069 1505.46V1540.35H311.428V1479.36Z" fill="#ECF5EC"/>
<path d="M280.474 1540.36L265.957 1515.71L259.247 1522.91V1540.36H239.606V1451.91H259.247V1503.27L279.01 1479.36H301.7L279.498 1503.64L302.31 1540.36H280.474Z" fill="#ECF5EC"/>
<path d="M207.143 1495.1C210.315 1484.12 217.025 1477.9 227.516 1477.9H228.736V1496.56C227.516 1496.44 226.54 1496.44 225.076 1496.44C219.83 1496.44 215.927 1497.78 213.243 1500.1C209.339 1503.76 208.363 1509.25 208.363 1515.47V1540.36H188.723V1479.36H207.143V1495.1Z" fill="#ECF5EC"/>
<path d="M176.459 1508.39V1514.25H134.128C134.25 1522.55 139.984 1527.79 148.157 1527.79C154.135 1527.79 158.648 1524.86 161.454 1519.25L175.849 1525.84C170.969 1535.84 160.6 1541.82 147.913 1541.82C127.784 1541.82 115.585 1530.23 115.585 1510.47C115.585 1490.46 127.54 1477.9 146.571 1477.9C165.724 1477.9 176.459 1489 176.459 1508.39ZM157.55 1503.27V1502.78C157.55 1494.12 153.525 1489.49 146.205 1489.49C138.642 1489.49 134.372 1494.61 134.128 1503.27H157.55Z" fill="#ECF5EC"/>
<path d="M90.7301 1495.22C101.953 1496.93 108.541 1504.49 108.541 1515.96C108.541 1529.62 98.9035 1540.35 79.141 1540.35H38.5179V1453.74H77.5551C97.3177 1453.74 106.345 1463.38 106.345 1476.07C106.345 1485.09 100.855 1492.53 90.7301 1495.22ZM72.0655 1468.26H59.1344V1489.36H72.0655C81.3368 1489.36 84.8746 1484.6 84.8746 1478.75C84.8746 1472.65 80.9708 1468.26 72.0655 1468.26ZM73.4074 1525.84C82.8007 1525.84 87.0704 1520.84 87.0704 1514.25C87.0704 1507.54 82.5567 1503.03 73.8953 1503.03H59.1344V1525.84H73.4074Z" fill="#ECF5EC"/>
<path d="M2729.19 155.951C2690.57 159.145 2650.6 165.719 2612.78 153.906C2532.03 124.581 2521.41 30.4748 2397.2 18.4025C2330.1 11.6108 2258.73 46.7959 2227.82 107.704C2213.23 135.318 2205.92 165.831 2194 194.54C2180.25 226.525 2151.57 247.5 2126.59 270.237C2021.04 358.546 2029.28 493.102 2185.57 497.62C2248.95 498.93 2302.51 454.589 2332.99 402.036C2358.7 361.133 2372.64 328.509 2369.45 279.215C2369.32 260.667 2367.14 242.096 2370.07 223.681C2371.56 214.581 2378.25 207.751 2386.11 204.038C2434.03 188.545 2387.92 280.275 2444.59 305.801C2501.95 335.072 2559.75 276.28 2618.33 293.471C2636.52 298.82 2649.56 309.874 2641.72 329.901C2621.09 381.879 2563.55 362.487 2522.07 379.888C2491.31 393.132 2471.36 428.381 2473.15 461.336C2474.39 484.124 2491 501.007 2508.13 514.248C2535.64 536.183 2575.55 553.489 2549.22 594.366C2530.75 629.05 2474.71 635.646 2452.84 600.887C2440.58 581.367 2436.59 558.387 2429.9 536.672C2422.26 505.459 2397.52 480.044 2364.25 479.106C2318.44 474.39 2288.94 518.396 2275.73 556.659C2257.79 603.75 2260.75 633.867 2199.51 630.535C2159.26 628.123 2116.4 637.525 2090.37 670.683C2046.73 722.617 2011.81 821.967 2076.52 870.741C2117.99 899.467 2178.01 899.511 2219.81 871.303C2260.58 842.573 2273.86 790.86 2279.58 743.871C2282.4 723.004 2286.8 697.435 2306.8 686.306C2314.39 681.801 2319.56 682.927 2325.3 689.674C2330.07 695.191 2332.25 702.432 2335.14 709.014C2344.54 733.792 2351.75 759.695 2366.42 782.095C2397 831.931 2467.98 853.877 2519.33 823.622C2576.86 789.009 2609.92 727.027 2652.79 677.237C2662.28 664.687 2675.74 657.004 2691.03 653.777C2707.96 649.323 2725.73 647.125 2741.35 638.804C2769.04 624.066 2786.71 593.423 2791 562.97C2792.57 545.188 2784.79 527.476 2773.5 513.975C2764.81 501.426 2749.24 491.095 2748.31 474.813C2747.37 400.879 2854.25 332.34 2858.85 256.455C2862.34 186.276 2792.16 148.035 2729.19 155.951ZM2833.83 286.878C2821.38 312.202 2804.4 334.797 2787.93 356.741C2786.42 358.716 2784.94 360.715 2783.48 362.689C2765.46 386.755 2748.47 410.396 2737.5 437.369C2729.92 456.292 2729.11 470.157 2731.4 480.992C2733.69 491.876 2739.25 500.55 2745.97 508.89C2748.11 511.585 2750.22 514.038 2752.37 516.562L2752.4 516.561C2753.69 518.119 2755.04 519.675 2756.41 521.303C2759.87 525.458 2763.33 529.831 2766.15 534.568C2772 544.35 2775.08 555.57 2771.28 569.616C2765.9 590.114 2757.49 603.815 2746.72 613.176C2736.07 622.485 2723.69 626.993 2711.53 630.301C2707.22 631.478 2702.95 632.508 2698.74 633.511C2678.66 638.37 2659.93 642.888 2643.9 660.731L2643.76 660.882L2643.59 661.034C2631.95 672.494 2620.01 687.928 2607.23 705.045C2605.22 707.744 2603.18 710.493 2601.11 713.266C2590.29 727.857 2578.88 743.199 2566.9 757.395C2538.66 790.803 2505.04 820.49 2463.46 818.856C2417.41 818.039 2380.78 783.886 2366.34 743.095C2362.9 735.366 2360.02 726.935 2357.25 718.89C2355.89 714.854 2354.53 710.915 2353.16 707.196C2348.87 695.558 2344.05 685.082 2336.66 676.425C2330.54 670.032 2324 667.326 2317.62 666.9C2311.04 666.481 2304.01 668.462 2297.18 672.453C2283.3 680.589 2271.97 696.098 2269.05 710.769L2268.97 711.185L2268.83 711.579C2264.25 725.921 2262.19 741.022 2260.06 756.758L2259.85 758.225C2256.31 782.765 2249.04 807.027 2235.72 828.711C2214.32 866.881 2165.77 880.331 2125.97 872.747C2105.82 868.904 2086.98 859.566 2074.32 844.364C2061.57 829.045 2055.64 808.445 2060.28 783.378C2063.32 743.586 2079.76 704.865 2107.85 676.082L2108.06 675.856L2108.27 675.678L2109.26 674.815C2119.7 665.685 2131.84 655.107 2147.87 651.367C2159.04 648.119 2171.14 647.244 2182.89 646.916C2187.19 646.81 2191.39 646.755 2195.53 646.703C2203.11 646.624 2210.47 646.552 2217.84 646.019C2240.08 644.462 2258.02 639.023 2269.01 619.49L2269.03 619.489C2275.71 607.699 2280.03 594.825 2284.47 581.146L2284.98 579.62C2287.1 573.148 2289.24 566.506 2291.75 559.85C2294.23 553.219 2297.06 546.601 2300.47 540.204C2307.78 525.132 2319.31 510.515 2333.86 501.941C2348.76 493.16 2366.74 490.833 2385.28 500.838C2394.26 505.133 2400.65 512.44 2405.43 520.754C2410.23 529.067 2413.67 538.814 2416.52 548.51C2417.96 553.394 2419.28 558.356 2420.58 563.221L2420.94 564.593C2422.1 569.001 2423.23 573.289 2424.42 577.452C2427.07 586.718 2429.84 594.788 2433.35 601.08L2433.53 601.39L2433.66 601.726C2449.43 637.751 2497.9 652.413 2532.18 632.962L2532.4 632.833L2532.63 632.703C2549.29 624.782 2563.78 608.672 2570.64 590.553C2577.46 572.556 2576.5 553.528 2564.02 538.538L2564 538.539L2564 538.466C2555.7 528.237 2544.9 520.555 2533.09 512.155L2531.72 511.183C2519.72 502.668 2506.81 493.287 2497.24 480.064C2489.48 469.719 2486.66 457.615 2490.52 444.661C2495.28 426.398 2504.93 408.786 2522.11 397.783C2530.35 392.427 2539.49 390.298 2548.03 389.138C2551.97 388.607 2555.97 388.268 2559.73 387.938L2560.65 387.856C2564.77 387.488 2568.59 387.131 2572.29 386.584L2572.63 386.523L2573 386.51C2593.26 385.365 2610.79 381.449 2625.03 373.275C2639.09 365.23 2650.43 352.784 2657.95 333.692L2658 333.593C2664.01 318.957 2660.03 302.42 2648.29 291.635C2622.34 269.692 2584.03 271.999 2550.45 281.917L2550.35 281.921L2550.28 281.972C2545.44 283.265 2540.3 284.861 2534.65 286.621C2530.51 287.914 2526.11 289.288 2521.42 290.674C2510.69 293.809 2499.03 296.783 2487.7 297.971C2476.41 299.156 2464.85 298.65 2454.62 294.181C2444.12 289.624 2435.79 281.171 2430.8 268.003L2430.66 267.667L2430.58 267.33C2428.22 258.71 2427.35 250.036 2426.81 241.764C2426.64 239.193 2426.51 236.693 2426.39 234.217C2426.07 228.588 2425.8 223.2 2425.14 217.752L2425.13 217.437L2425.09 217.122C2424.72 203.47 2416.57 193.892 2405.85 189.709C2394.97 185.481 2381.68 186.91 2371.49 195.618L2371.3 195.771L2371.13 195.898C2354.21 208.619 2352.38 230.787 2353.86 254.101L2353.86 254.247C2354.62 271.848 2354.97 289.61 2354.47 307.306L2354.49 307.864L2354.16 309.554C2352.66 317.754 2351.12 326.247 2349.01 334.615L2349.02 334.712C2346 346.006 2341.04 356.324 2335.68 366.001C2333.15 370.615 2330.47 375.137 2327.86 379.56L2327.47 380.23C2324.72 384.901 2322.04 389.448 2319.55 394.011L2319.48 394.135L2319.44 394.234C2293.49 438.356 2249.95 478.93 2194.44 481.957L2194.36 481.96C2139.92 484.364 2098.72 466.351 2080.73 434.029C2062.63 401.517 2069.93 357.972 2104.8 313.674C2117.59 297.48 2133.09 283.862 2148.01 270.753C2150.48 268.572 2152.96 266.416 2155.38 264.261C2172.62 248.928 2188.56 233.69 2199.82 214.414C2207.83 199.123 2213.67 183.787 2219.1 168.564C2220.05 165.928 2220.97 163.293 2221.9 160.658C2226.33 148.121 2230.77 135.609 2236.1 123.696C2249.24 94.4078 2268.18 68.1196 2307.67 49.0399C2352.71 26.3803 2407.06 26.022 2452.67 47.1335C2476.99 57.2701 2495.77 73.9527 2512.82 91.4764C2518.25 97.0673 2523.46 102.69 2528.57 108.244C2539.85 120.432 2550.81 132.267 2563.19 142.737L2563.27 142.807L2563.34 142.853C2599.54 175.053 2648.82 180.324 2697.21 174.686L2697.58 174.672C2703.01 174.306 2708.61 173.788 2714.35 173.24C2728.91 171.863 2744.27 170.408 2759.34 171.688C2787.42 173.664 2813.13 188.224 2828.38 209.363C2843.77 230.739 2848.41 258.875 2833.86 286.877L2833.83 286.878Z" fill="#ECF5EC"/>
<path d="M2020.92 903.07C1985.51 908.92 1949.74 922.224 1921.12 944.194C1879.52 978.352 1860.55 1032.6 1853.28 1084.46C1845 1155.4 1901.24 1181.84 1960.31 1196.49C2058.08 1221.21 2121.07 1111.36 2143.86 1031.71C2166.22 962.695 2086.73 894.347 2020.92 903.07ZM2124.92 1031.44C2122.69 1039.16 2119.85 1046.56 2116.64 1054.74C2115.57 1057.46 2114.53 1060.15 2113.53 1062.81L2113.28 1063.4C2103.1 1085.58 2086.93 1118.07 2064.72 1142.58C2042.58 1167.01 2017.86 1179.84 1991.13 1180.81C1987.61 1180.93 1984.08 1180.87 1980.52 1180.58L1979.4 1180.4C1955.81 1174.81 1926.43 1167.87 1904.63 1153.85C1892.43 1146.03 1883.55 1136.52 1878.25 1125.65C1872.19 1113.28 1870.57 1098.77 1873.39 1082.57C1874.82 1057.52 1884.16 1031.53 1892.12 1011.7C1908.36 969.967 1947.6 938.253 1999.77 924.794L2000.21 924.681C2014.23 921.232 2030.14 917.302 2045.98 920.45L2046.22 920.49C2097.11 934.141 2121.68 968.146 2127.8 995.498L2127.91 995.981C2129.71 1006.78 2128.76 1018.05 2124.92 1031.44Z" fill="#ECF5EC"/>
</svg>
