<svg width="88" height="88" viewBox="0 0 88 88" xmlns="http://www.w3.org/2000/svg">
<path d="M49.3438 87.7779L43.8891 84.4018L56.4287 60.7693H75.2383C76.9011 60.7693 78.4959 60.058 79.6717 58.7917C80.8475 57.5254 81.5081 55.808 81.5081 54.0172V13.5044C81.5081 11.7136 80.8475 9.99618 79.6717 8.72991C78.4959 7.46364 76.9011 6.75226 75.2383 6.75226H12.5399C10.877 6.75226 9.28224 7.46364 8.10642 8.72991C6.93059 9.99618 6.27002 11.7136 6.27002 13.5044V54.0172C6.27002 55.808 6.93059 57.5254 8.10642 58.7917C9.28224 60.058 10.877 60.7693 12.5399 60.7693H40.7541V67.5215H12.5399C9.21413 67.5215 6.02462 66.0987 3.67297 63.5662C1.32132 61.0336 0.000183105 57.5988 0.000183105 54.0172V13.5044C0.000183105 9.92284 1.32132 6.48797 3.67297 3.95543C6.02462 1.42289 9.21413 0.00012207 12.5399 0.00012207H75.2383C78.564 0.00012207 81.7535 1.42289 84.1052 3.95543C86.4568 6.48797 87.778 9.92284 87.778 13.5044V54.0172C87.778 57.5988 86.4568 61.0336 84.1052 63.5662C81.7535 66.0987 78.564 67.5215 75.2383 67.5215H60.0653L49.3438 87.7779Z"/>
<path d="M18.8058 20.2562H68.9646V27.0084H18.8058V20.2562ZM18.8058 40.5126H50.1551V47.2648H18.8058V40.5126Z"/>
</svg>
