<svg viewBox="0 0 64 64" xmlns="http://www.w3.org/2000/svg"><path d="m50 23h-4v-6c0-7.7197-6.2803-14-14-14s-14 6.2803-14 14v6h-4c-2.7568 0-5 2.2432-5 5v28c0 2.7568 2.2432 5 5 5h36c2.7568 0 5-2.2432 5-5v-28c0-2.7568-2.2432-5-5-5zm-30-6c0-6.6167 5.3828-12 12-12s12 5.3833 12 12v6h-4v-6c0-4.4111-3.5889-8-8-8s-8 3.5889-8 8v6h-4zm6 6v-6c0-3.3086 2.6914-6 6-6s6 2.6914 6 6v6zm27 33c0 1.6543-1.3457 3-3 3h-36c-1.6543 0-3-1.3457-3-3v-28c0-1.6543 1.3457-3 3-3h36c1.6543 0 3 1.3457 3 3zm-7-13.9966c0 .5571-.0332 1.1196-.0986 1.6709-.0605.5083-.4922.8818-.9922.8818-.0391 0-.0791-.0024-.1191-.0068-.5479-.0654-.9404-.563-.875-1.1113.0566-.4731.085-.9561.085-1.4346 0-6.6167-5.3828-12-12-12s-12 5.3833-12 12c0 .5522-.4473 1-1 1s-1-.4478-1-1c0-7.7197 6.2803-14 14-14s14 6.2803 14 14zm-8 0c0 3.3506-.6836 7.3188-5.6445 13.6123-.1973.25-.4902.3809-.7861.3809-.2168 0-.4346-.0703-.6182-.2148-.4336-.3418-.5078-.9702-.166-1.4043 4.8115-6.105 5.2148-9.5884 5.2148-12.374 0-2.2056-1.7939-4-4-4s-4 1.7944-4 4c0 .5522-.4473 1-1 1s-1-.4478-1-1c0-3.3086 2.6914-6 6-6s6 2.6914 6 6zm-5-.2427c0 2.1958-.5283 7.8423-5.4258 12.8311-.1963.1992-.4551.2993-.7139.2993-.2529 0-.5059-.0952-.7002-.2866-.3945-.3867-.4004-1.02-.0137-1.4141 4.3809-4.4619 4.8535-9.4795 4.8535-11.4297 0-.5522.4473-1 1-1s1 .4478 1 1zm9 .2427c0 2.5029-.2334 5.5181-1.9678 8.9033-.1768.3452-.5273.5439-.8906.5439-.1533 0-.3086-.0352-.4551-.1099-.4912-.252-.6855-.8545-.4336-1.3462 1.5391-3.0063 1.7471-5.7266 1.7471-7.9912 0-4.4111-3.5889-8-8-8s-8 3.5889-8 8c0 1.8853-.1904 4.1445-2.4648 7.105-.3359.437-.9629.5215-1.4023.1836-.4375-.3364-.5205-.9644-.1836-1.4023 1.8936-2.4648 2.0508-4.1909 2.0508-5.8862 0-5.5142 4.4863-10 10-10s10 4.4858 10 10zm-14.6396 4.6792c-.6094 2.0908-1.6553 3.895-3.29 5.6777-.1973.2153-.4668.3242-.7373.3242-.2422 0-.4834-.0869-.6758-.2632-.4072-.373-.4346-1.0059-.0615-1.4126 1.8662-2.0342 2.5176-3.7627 2.8447-4.8857.1543-.5308.708-.835 1.2402-.6802.5303.1548.834.71.6797 1.2397z"/></svg>
