<svg viewBox="0 0 512 512" xmlns="http://www.w3.org/2000/svg">
<path d="m331 512c-2 0-4-.4-5.9-1.1-43.8-11.2-80.4-33.5-108.8-66.4-28.8-33.3-43.4-74.2-43.4-121.6 0-22.2 8.3-41.1 24.5-56.2 16.1-14.9 35.5-22.4 57.8-22.4s41.7 7.6 57.8 22.4c16.3 15.1 24.5 34 24.5 56.2 0 12.5 4.8 22.7 14.5 31.4 9.6 8.7 22.1 13.5 35.1 13.3 12.9 0 24-4.3 33.7-13.2 9.5-8.6 14-18.9 14-31.5 0-47.6-17.2-86.4-52.7-118.6-35.3-32-78-48.2-127-48.2s-91.7 16.2-127 48.2c-35.4 32.2-52.7 71-52.7 118.6 0 9.3 1.1 21.7 3.3 36.9 2.1 14.9 6.8 32.2 13.8 51.4 3 7.5.3 12.6-1.6 15-1.6 1.9-3.4 3.6-5.5 5l-.6.4-.6.3c-2.5 1.3-5.3 1.9-8.1 1.9-1.4 0-2.7-.2-4.1-.5-5.3-1.2-9.6-5-11.5-10l-.1-.2-.1-.3c-5.5-16-9.8-32.4-13-49-3.2-16.7-4.8-33.7-4.8-50.8 0-55.6 21.4-103.7 63.5-143 41.9-39.1 92-59 148.9-59 58.1 0 108.7 19.5 150.4 58 42 38.7 63.2 87.2 63.2 144 0 21.8-8.1 40.4-24.2 55.5-15.9 14.9-35.2 22.5-57.5 22.5-22.7 0-42.4-7.5-58.7-22.4-16.5-15.1-24.9-33.8-24.9-55.6 0-13-4.6-23.5-14-32.1-9.3-8.7-21.6-13.4-34.3-13.2-12.8-.2-25.2 4.5-34.6 13.3-9.6 8.6-14.3 19.1-14.3 32 0 39.6 12.1 73.1 35.9 99.4 24.3 26.9 55.1 46 91.5 56.8l.3.1c5.2 1.7 8.8 4.5 10.7 8.4 3.5 7.8 1.1 17-5.7 22.1-2.1 1.4-4.9 2.2-7.7 2.2zm-133.2-5c-4.6-.1-9-2.2-11.8-5.9-24.2-25.1-43.4-51.9-57.1-79.7-14-28.3-21-61.5-21-98.5 0-39.3 14.7-72.9 43.6-99.8 28.7-26.7 63.6-40.3 103.8-40.3s75.3 13.5 104.4 40.2c29.4 26.9 44.2 60.5 44.2 99.8.5 8.8-6.3 16.2-15 16.7-.6 0-1.1 0-1.7 0-4.2.1-8.4-1.3-11.7-4-3.7-3.2-5.8-7.8-5.6-12.7 0-30.3-11-55.1-33.7-75.6-23-20.9-49.4-31-81-31s-57.8 10.1-80.3 31c-22.3 20.6-33.1 45.4-33.1 75.7 0 33 5.7 61.4 17 84.3 11.5 23.4 28.9 47.3 51.8 70.9 5 5.1 5.5 10.1 5.1 13.5-.6 3.8-2.4 7.3-5.1 10-2.3 2.2-5.1 3.8-8.1 4.7-1.6.5-3.2.7-4.7.7zm183.8-47.2c-38.5 0-72.4-13-100.7-38.6-28.6-25.9-43-59-43-98.3-.1-4.2 1.3-8.4 4-11.7 6.4-7 17.2-7.5 24.2-1.2l1.2 1.2c2.7 3.3 4.1 7.4 4 11.7 0 30.2 10.8 54.5 32.9 74 22.6 19.9 47.9 29.6 77.4 29.6 2.9 0 6.5-.2 10.7-.6s8.9-1 13.9-1.7c1.1-.2 2.3-.3 3.5-.3 3.6 0 7.2 1.2 10 3.5 2.6 2.1 4.6 5 5.7 8.1l.1.4.1.4c1 3.9.7 8-1.1 11.6-1.2 2.4-4.2 6.5-10.9 8-7 2-14.2 3.3-21.4 3.7-7.7.2-9.7.2-10.6.2zm-342.9-256.2c-2.7 0-5.4-.7-7.9-1.9-5.1-2.5-8.3-7.7-8.3-13.4 0-3.4.8-6.8 2.3-9.9l.4-.8.5-.7c25.9-36.1 60.3-65.3 100.2-84.9 40.2-19.9 84.4-30.1 129.2-29.9 44.8-.2 89.1 9.8 129.5 29.2 40.2 19.3 75 48.2 101.2 84.3l.3.4.2.4c2.6 4.3 3.5 8.2 2.9 12.1-.7 3.6-2.4 6.9-5.1 9.4-3.2 3.2-7.5 5-12.1 4.9-3.6 0-8.8-1.2-13.5-7l-.2-.2-.2-.2c-22.7-31.7-53.1-57.2-88.4-74-35.8-17.2-75-26.1-114.8-26-40.3 0-78.6 8.8-113.8 26.2-34.9 17.2-65.2 42.5-88.2 73.8l-.1.2-.1.1c-3.1 3.8-6.3 6.2-9.9 7.2-1.2.4-2.7.6-4.1.7zm70-133.3c-2.5 0-4.9-.6-7-1.9-2.2-1.4-4.1-3.1-5.6-5.3-2.4-2.9-3.6-6.5-3.5-10.2-.1-5 2.4-9.7 6.5-12.5l.4-.3.4-.2c23.9-13 49.4-23 75.8-29.8 25.9-6.6 52.7-10.1 79.5-10.1 27.3 0 54.4 3.4 80.9 10.1 26 6.6 51.2 16.1 75.2 28.3 5.3 2.3 8.7 6.6 9.4 12 .6 4-.4 8.1-2.6 11.5-1.8 2.6-4.1 4.8-6.9 6.4-2.3 1.3-4.9 2-7.6 2-2.3 0-4.6-.5-6.8-1.4l-.4-.2-.4-.2c-21.9-10.7-44.9-19.2-68.6-25.3-23.6-6.1-47.9-9.2-72.2-9.2-24.2 0-48.2 2.8-71.7 8.6-23.3 5.7-45.8 14.4-66.9 25.8l-.5.3-.6.2c-2.2.8-4.5 1.3-6.8 1.4z"/>
</svg>
