<svg viewBox="0 0 20 20" xmlns="http://www.w3.org/2000/svg">
<path d="M8.33333 0H0V8.33333H8.33333V0ZM1.66667 1.66667H6.66667V6.66667H1.66667V1.66667ZM5 15H3.33333V16.6667H5V15Z"/>
<path d="M8.33333 11.6667H0V20H8.33333V11.6667ZM1.66667 13.3333H6.66667V18.3333H1.66667V13.3333ZM15 3.33333H16.6667V5H15V3.33333Z"/>
<path d="M11.6667 0H20V8.33333H11.6667V0ZM13.3333 1.66667V6.66667H18.3333V1.66667H13.3333ZM10 10V13.3333H11.6667V15H10V16.6667H13.3333V13.3333H15V16.6667H16.6667V15H20V13.3333H15V10H10ZM13.3333 13.3333H11.6667V11.6667H13.3333V13.3333ZM20 16.6667H18.3333V18.3333H15V20H20V16.6667ZM13.3333 20V18.3333H10V20H13.3333Z"/>
<path d="M5 3.33333H3.33333V5H5V3.33333Z"/>
</svg>
