<svg viewBox="0 0 20 20" xmlns="http://www.w3.org/2000/svg">
<path d="M18.5714 4H1.42857V1.6H17.1429V0H1.42857C1.04969 0 0.686328 0.168571 0.418419 0.468629C0.15051 0.768687 0 1.17565 0 1.6V18.4C0 18.8243 0.15051 19.2313 0.418419 19.5314C0.686328 19.8314 1.04969 20 1.42857 20H18.5714C18.9503 20 19.3137 19.8314 19.5816 19.5314C19.8495 19.2313 20 18.8243 20 18.4V5.6C20 5.17565 19.8495 4.76869 19.5816 4.46863C19.3137 4.16857 18.9503 4 18.5714 4ZM1.42857 18.4V5.6H18.5714V8H12.8571C12.4783 8 12.1149 8.16857 11.847 8.46863C11.5791 8.76869 11.4286 9.17565 11.4286 9.6V14.4C11.4286 14.8243 11.5791 15.2313 11.847 15.5314C12.1149 15.8314 12.4783 16 12.8571 16H18.5714V18.4H1.42857ZM18.5714 9.6V14.4H12.8571V9.6H18.5714Z"/>
</svg>
